<svg xmlns="http://www.w3.org/2000/svg" width="23.853" height="29" viewBox="0 0 23.853 29"><defs><style>.a{fill:#fff;}</style></defs><path class="a" d="M76.574,42.8a11.009,11.009,0,0,0,2.411,6.9,20.326,20.326,0,0,0-9.525,4.185,20.362,20.362,0,0,0,9.525,4.185,11.015,11.015,0,0,0-2.411,6.9V68.38c1.413-7.449,16.739-14.485,16.739-14.485S78,46.829,76.574,39.38Z" transform="translate(-69.46 -39.38)"/><path class="a" d="M80.859,62.615a4.162,4.162,0,0,1,1.893,1.725A3.605,3.605,0,0,1,78.3,62.6,4.162,4.162,0,0,1,80.859,62.615Z" transform="translate(-75.454 -54.992)"/><path class="a" d="M80.859,101.762a4.146,4.146,0,0,0,1.893-1.722,3.59,3.59,0,0,0-4.452,1.751,4.162,4.162,0,0,0,2.559-.029Z" transform="translate(-75.454 -80.385)"/></svg>