<svg xmlns="http://www.w3.org/2000/svg" width="19.053" height="19.053" viewBox="0 0 19.053 19.053"><defs><style>.a{fill:#e5d5bb;}</style></defs><path class="a" d="M6.732,5H22.321a1.745,1.745,0,0,1,1.732,1.732V22.321a1.745,1.745,0,0,1-1.732,1.732H6.732A1.745,1.745,0,0,1,5,22.321V6.732A1.745,1.745,0,0,1,6.732,5Zm0,1.732V22.321h8.39V16.475H12.849v-2.6h2.272V11.928a3.131,3.131,0,0,1,3.356-3.437c.957,0,1.79.049,2.03.081v2.355H19.1c-1.085,0-1.271.514-1.271,1.272v1.678H20.4l-.325,2.6H17.829v5.846h4.492V6.732Z" transform="translate(-5 -5)"/></svg>