<svg xmlns="http://www.w3.org/2000/svg" width="165.595" height="107.068" viewBox="0 0 165.595 107.068"><defs><style>.a{fill:#fff;fill-rule:evenodd;}</style></defs><g transform="translate(0.013)"><g transform="translate(-0.013)"><path class="a" d="M16.729,65.331a17.117,17.117,0,0,1,1.125,5.316,5.418,5.418,0,0,1-2.57,4.644c-1.008.686-1.767.847-2.278.467.248.307.409.5.467.584a8.6,8.6,0,0,0,2.118,2.03c1.183.876,2,1.154,2.454.847.161-.117.234-.438.19-.964a1.139,1.139,0,0,1,.394-1.081,1.548,1.548,0,0,1,.964-.248.964.964,0,0,1,.8.424,2.118,2.118,0,0,1,.058,2.322,5,5,0,0,1-1.636,1.782,14.852,14.852,0,0,1-2.5,1.256,15.043,15.043,0,0,0-2.468,1.241,5.17,5.17,0,0,0-1.665,1.869,5.506,5.506,0,0,1-.832,1.314c-.657.438-1.154.38-1.46-.161a2.059,2.059,0,0,1-.277-1.46,3.505,3.505,0,0,1,.438-1.46,4.031,4.031,0,0,0-.234-3.768,30.57,30.57,0,0,0-2.308-3.534,49.394,49.394,0,0,0-4.586-5.973,2.088,2.088,0,0,0-1.46-.38C.78,70.4.342,70.268.167,70a1.46,1.46,0,0,1-.161-.935,1.052,1.052,0,0,1,.365-.818,2.41,2.41,0,0,1,1.183-.365H2.825c.526-.38,1.314-1.037,2.366-1.986A24.273,24.273,0,0,1,7.63,63.944,5.944,5.944,0,0,1,12.391,62.8a10.486,10.486,0,0,1,4.381,2.5ZM12.7,69.26a11.2,11.2,0,0,0-2.015-2.308Q9.061,65.624,8.053,66.3T9.1,70.326c.307.453.818,1.154,1.548,2.1s1.241,1.665,1.548,2.132a1.285,1.285,0,0,1,.643-1.183,1.826,1.826,0,0,1,1.329-.292,8.646,8.646,0,0,0-1.46-3.826Zm24-.613a5.842,5.842,0,0,1-1.329,1.46,7.668,7.668,0,0,0-1.387,1.46,2.03,2.03,0,0,0-.117,1.9,4.864,4.864,0,0,1-.73.424,4.922,4.922,0,0,1-2.717,0,8.047,8.047,0,0,0-2.658-.234.949.949,0,0,1-.38-.453,2.468,2.468,0,0,1-.073-1.022,2.687,2.687,0,0,0-.088-1.052l-1.65-4.075a9.654,9.654,0,0,0-.92-1.592A9.565,9.565,0,0,1,23.768,64q-.321-.789.613-1.621l1.577-1.314a2.41,2.41,0,0,0,.453-1.46,1.081,1.081,0,0,1,.613-1.066,5.682,5.682,0,0,1,2.424.219,6.908,6.908,0,0,0,2.848.161,1.665,1.665,0,0,1,.555.745,6.7,6.7,0,0,1,.263,1.1,6.967,6.967,0,0,0,.263,1.11l1.46,3.593a11.231,11.231,0,0,0,1.928,3.271Zm-4.25.8a9.449,9.449,0,0,1-1.081-2.059c-.161-.38-.365-.949-.628-1.709s-.467-1.314-.613-1.68a11.3,11.3,0,0,0-.906-1.767,1.738,1.738,0,0,0-1.46,0c.336,1.052.613,1.855.847,2.4a11.684,11.684,0,0,0,.613,1.227,9.349,9.349,0,0,1,.613,1.212,7.127,7.127,0,0,1,.321,1.125,8.588,8.588,0,0,0,.321,1.168,2.629,2.629,0,0,0,.394.672,4.381,4.381,0,0,0,1.1-.161.993.993,0,0,0,.453-.365Zm18.577-5.331a1.46,1.46,0,0,0-.365-.57,1.767,1.767,0,0,1-.365-.613c-.131-.467-.365-1.168-.686-2.074s-.555-1.592-.686-2.059-.307-1.271-.5-2.293-.365-1.665-.511-2.22a1.592,1.592,0,0,0-1.081-.979,2.921,2.921,0,0,1-1.3-.8,6.85,6.85,0,0,1-2.424-1.46c-1.139-.876-1.767-1.46-1.884-1.913a2.41,2.41,0,0,1,0-1.052,2.5,2.5,0,0,0,0-1.1.628.628,0,0,0-.57-.424,1.607,1.607,0,0,0-.832,0,1.548,1.548,0,0,0-.906.8,1.46,1.46,0,0,0-.19,1.183,1.636,1.636,0,0,0,.307.54,2.161,2.161,0,0,1,.307.54c.117.438-.161.745-.832.949a8.879,8.879,0,0,0-1.665.57,1.183,1.183,0,0,0-.555,1.46.467.467,0,0,0,.657.365,3.7,3.7,0,0,1,2.5-.015,12.633,12.633,0,0,1,1.972,1.709c0,.453-.657,1.052-1.8,1.811s-1.563,1.168-1.46,1.46a7.754,7.754,0,0,1,.6,1.022,9.99,9.99,0,0,1,.818,1.84c.979,3.432,1.46,5.243,1.46,5.433a2.016,2.016,0,0,1-.088.876,1.913,1.913,0,0,0-.044.876.876.876,0,0,0,.424.526,9.026,9.026,0,0,1,3.009.394,6.09,6.09,0,0,0,2.775.248c.321-.088.409-.394.263-.905l-.263-.935a8.647,8.647,0,0,1,1.665-1.46l1.855-1.125c.307-.175.424-.38.351-.584Zm-4.235.774a1.373,1.373,0,0,1-.38.146,3.082,3.082,0,0,1-2.089-.175,11.6,11.6,0,0,0-.584-4.192c-.146-.5-.365-1.212-.686-2.147s-.526-1.65-.657-2.118a1.3,1.3,0,0,1,.117-.862,5.637,5.637,0,0,1,1.46.672c.54,2.337.993,4.1,1.329,5.3a10.851,10.851,0,0,0,1.46,3.374ZM83.648,53.136a1.241,1.241,0,0,1-.555,1.008,5.243,5.243,0,0,0-1.008.993,4.192,4.192,0,0,0-.526,2.351,7.857,7.857,0,0,0,.686,2.556,8.018,8.018,0,0,1,.672,2.483c0,.57-.526,1.022-1.607,1.329a8.924,8.924,0,0,1-2.381.336,24.654,24.654,0,0,1-3.593-.292,26.756,26.756,0,0,0-3.534-.292,2.921,2.921,0,0,0-2.015.686,2.22,2.22,0,0,1-1.461.672q-1.139.1-1.139-1.212a1.46,1.46,0,0,1,.657-1.212l1.314-.993a2.381,2.381,0,0,0,.584-1.869,24.684,24.684,0,0,1,0-2.57c.073-1.227.117-2.1.1-2.614V49.383a15.526,15.526,0,0,0-.307-2.424c-.073-.263-.38-.526-.935-.832s-.832-.613-.847-.979c0-.6.643-.92,1.942-.949a14.837,14.837,0,0,1,1.811.088,13.234,13.234,0,0,0,1.358.1,25.091,25.091,0,0,0,4.878-.409,2.775,2.775,0,0,0,.876-.526,1.826,1.826,0,0,1,.993-.467c.613,0,.92.394.935,1.2s-.467,1.344-1.46,1.46l-2.76.438c-1.008.409-1.46,1.46-1.46,2.921,0,3.257.1,5.2.131,5.842a37.259,37.259,0,0,0,.686,5.74c.19.862.643,1.285,1.329,1.271s1.154-.832,1.46-2.483c.555-2.629.906-4.162,1.081-4.6a3.359,3.359,0,0,1,3.067-2.512c.643,0,.979.336.993,1.022Zm10.223-7.945c-.365.088-.745.5-1.154,1.212s-.774,1.052-1.066,1.037a1.782,1.782,0,0,1-1.037-.7,1.592,1.592,0,0,0-.759-.949c-.467-.336-.7-.613-.686-.847a2.034,2.034,0,0,1,.818-1.1,2.205,2.205,0,0,0,.876-1.2h.409a2.351,2.351,0,0,1,1.621.906,5.01,5.01,0,0,1,.979,1.665Zm0,16.065a5.2,5.2,0,0,1-1.11,1.46,2.045,2.045,0,0,0-.745,1.665,1.154,1.154,0,0,1-.847.365,10.223,10.223,0,0,1-1.9-1.227,10.7,10.7,0,0,1-1.782-1.461,11,11,0,0,0,1.241-5.112c.1-1.753.146-2.7.161-2.833a3.242,3.242,0,0,0-.8-2.454,2.921,2.921,0,0,1,.906-1.577,2.249,2.249,0,0,0,.759-1.709,1.461,1.461,0,0,1,.832-.219,2.76,2.76,0,0,1,1.563.906,4.381,4.381,0,0,0,1.563,1.125,1.066,1.066,0,0,1,.175.657,1.46,1.46,0,0,1-.234.643,11.2,11.2,0,0,0-.979,4.951q-.219,4.031,1.139,4.863Zm16.489,2.454a5.842,5.842,0,0,1-2.556.643c-1.1.131-1.709.57-1.826,1.3a6.131,6.131,0,0,1-.161.818c-.117.219-.351.307-.7.248a4.252,4.252,0,0,1-.482-.131l-.526-.058c-.394,0-.628.19-.716.759a2.585,2.585,0,0,0,.453,1.723,2.556,2.556,0,0,1,.5,1.329.789.789,0,0,1-.54.613,1.87,1.87,0,0,1-.92.117,3.578,3.578,0,0,1-2.03-1.212l-1.285.8a2.191,2.191,0,0,1-1.46.38,1.2,1.2,0,0,1-.73-.482,1.008,1.008,0,0,1-.263-.818,1.036,1.036,0,0,1,.131-.248,1.037,1.037,0,0,0,.131-.219,2.687,2.687,0,0,0,1.942-1.621,11.567,11.567,0,0,0,.745-2.585l-.175-.482a1.811,1.811,0,0,0-.73.38,1.139,1.139,0,0,1-.789.321.686.686,0,0,1-.511-.453,1.3,1.3,0,0,1-.1-.73,2.527,2.527,0,0,1,1.008-1.782l1.665-1.154a14.614,14.614,0,0,1,.321-2.015c.146-.832.307-1.723.351-2.015s.1-.672.146-1.227.117-.949.146-1.183a1.46,1.46,0,0,0-.54-1.285,1.3,1.3,0,0,1-.57-1.125v-.146c.613,0,1.052-.584,1.3-1.563s.686-1.271,1.46-1.154a3.315,3.315,0,0,1,1.709,1.081,4.732,4.732,0,0,0,1.139.979,1.066,1.066,0,0,0,1.081-.628c.321-.5.555-.716.716-.7a4.148,4.148,0,0,1,1.9,1.227,6.587,6.587,0,0,0,1.957,1.46.993.993,0,0,1,.161.657,1.665,1.665,0,0,1-.292.643,1.665,1.665,0,0,0-.292.643l-.584,3.71a18.022,18.022,0,0,0-.234,5.214Zm-2.921-9.26a2.468,2.468,0,0,0-1.46-.979,1.549,1.549,0,0,0-.336,0q-.234,3.111-1.037,8.106c0,.467.219.759.876.862a1.344,1.344,0,0,0,.54,0c0-.263.117-1.052.248-2.322.1-.949.19-1.709.277-2.293a13.889,13.889,0,0,1,.891-3.33Zm19.629,13.013c-.088.365-.482.716-1.168,1.052s-1.081.716-1.183,1.11a.934.934,0,0,0,0,.292.759.759,0,0,1,0,.321c0,.248-.307.307-.745.19a3.228,3.228,0,0,1-2.059-1.592c-.482-.818-.862-1.271-1.168-1.358h-.657A7.447,7.447,0,0,1,120,68.734a.576.576,0,0,1-.482.307,2.132,2.132,0,0,1-.7,0,3.856,3.856,0,0,1-1.621-1.358,5.754,5.754,0,0,0-1.811-1.607c-.321-.146-.424-.424-.321-.847s.248-.482.5-.453c.657,0,1.212-.891,1.68-2.643.1-.38.219-.862.351-1.46s.19-.906.2-.964a6.718,6.718,0,0,1,2.22,0,8.763,8.763,0,0,0,2.22,0,1.9,1.9,0,0,0,1.46-1.461,1.563,1.563,0,0,0-.321-1.46,2.337,2.337,0,0,0-1.329-.876c-.628-.175-.993,0-1.125.424,0,.131.161.38.584.745a1.125,1.125,0,0,1,.467,1.2,1.227,1.227,0,0,1-.73.832,1.855,1.855,0,0,1-1.2,0,1.826,1.826,0,0,1-1.183-1.008,2.161,2.161,0,0,1-.2-1.607,3.68,3.68,0,0,1,.949-1.65,1.957,1.957,0,0,1,1.607-.657,2.322,2.322,0,0,0,1.665-.584,2.118,2.118,0,0,1,1.636-.555,10.487,10.487,0,0,1,1.84,1.46l2.015,1.84a.774.774,0,0,1,.219.876,23.982,23.982,0,0,1-.964,2.687,24.929,24.929,0,0,0-.964,2.717,7.39,7.39,0,0,0-.467,3.213,4.862,4.862,0,0,0,.613.555.862.862,0,0,1,.219,1.008Zm-4.863-3.2a8.4,8.4,0,0,0,.131-1.2,4.528,4.528,0,0,1,.307-1.139.467.467,0,0,0-.351-.453,1.212,1.212,0,0,0-.979.277,1.8,1.8,0,0,1,0,.789,6.106,6.106,0,0,1-.336.832,7.554,7.554,0,0,0-.336.862c-.146.57,0,.935.57,1.066s.8-.219,1.022-1.037ZM147.034,76.8a5.726,5.726,0,0,1-1.11.584,2.629,2.629,0,0,0-1.46,1.607,1.68,1.68,0,0,1-.657-.146,5.754,5.754,0,0,1-1.46-2.22,20.839,20.839,0,0,1-.906-1.986c-.336-.161-.789,0-1.358.54a3.359,3.359,0,0,0-.92,1.256,1.46,1.46,0,0,1-.832-.117,2.556,2.556,0,0,1-1.037-1.65,4.162,4.162,0,0,0-.906-1.855v-.482l-1.212.219c-.277.073-.555.409-.832,1.022s-.482.657-.774.526a3.534,3.534,0,0,1-1.49-1.723,14.477,14.477,0,0,0-1.139-2.089v-.175q-.117.219,1.1-1.052a9.611,9.611,0,0,0,1.8-2.527c.2-.453.526-1.227.979-2.322s.73-1.753.993-2.278a4.1,4.1,0,0,0-.394-.832c-.2-.365-.263-.628-.161-.832a2.673,2.673,0,0,1,1.066-.73,2.22,2.22,0,0,0,1.212-1.3,1.139,1.139,0,0,1,1.125,0,3.155,3.155,0,0,1,1.46,1.212,5.536,5.536,0,0,1,.453,1.154,1.271,1.271,0,0,0,.6.8,1.46,1.46,0,0,0,1.548-.394c.555-.482.949-.672,1.183-.555a4.06,4.06,0,0,1,1.46,1.212,3.111,3.111,0,0,1,.73,1.665,1.723,1.723,0,0,0,1.139-.409,1.694,1.694,0,0,1,1.154-.38c.657.686,1.314,1.46,1.986,2.132.964,1.081,1.46,1.782,1.241,2.089a2.322,2.322,0,0,1-.759.774,3.038,3.038,0,0,0-.759.716A30.906,30.906,0,0,0,148.26,71.7c-.1.219-.54,1.212-1.3,2.921a1.461,1.461,0,0,0,0,1.066,1.46,1.46,0,0,1,0,1.008Zm-.263-10.223a1.855,1.855,0,0,0-1.168-1.46,2.673,2.673,0,0,0-.73.8,6.994,6.994,0,0,1-.657.935,7.491,7.491,0,0,1-.482,1.8c-.161.453-.424,1.008-.759,1.709-.5.949-.759,1.46-.832,1.636a1.884,1.884,0,0,0-.146,1.358.848.848,0,0,1-.044,1.066,3.476,3.476,0,0,0,1.285-.643,24.522,24.522,0,0,1,1.1-3.242,18.4,18.4,0,0,1,2.439-4Zm-7.39,1.913c.2-.453.511-1.139.891-2.045s.672-1.592.876-2.03a1.066,1.066,0,0,0-.131-.789,1.46,1.46,0,0,0-.526-.672c-.336-.161-.657.1-.979.759a2.825,2.825,0,0,1-.263.643l-.2.511c-.2.438-.54,1.1-.993,1.957s-.789,1.46-1.008,1.972a1.948,1.948,0,0,1-.234.511l-.219.482a1.008,1.008,0,0,0,.175,1.154c.292.38.409.657.321.818A9.537,9.537,0,0,0,139.381,68.486Zm26.055,1.46a2.381,2.381,0,0,0-1.621.38c-.745.365-1.227.467-1.461.292a1.775,1.775,0,0,1-.482-1.154,1.563,1.563,0,0,0-.131-1.212c-.2-.526-.248-.891-.1-1.081a1.928,1.928,0,0,1,1.271-.482,2.205,2.205,0,0,0,1.387-.511,1.461,1.461,0,0,1,.365.2,2.322,2.322,0,0,1,.862,1.636,4.79,4.79,0,0,1-.088,1.928Zm-8.763,13.466c-.453-.964.117-2.527,1.694-4.7a11.421,11.421,0,0,1,3.52-3.622,1.358,1.358,0,0,0,.54-.409,1.037,1.037,0,0,0,.219-.643,4.5,4.5,0,0,1-.716-1.8,2.673,2.673,0,0,0-.8-1.607,1.373,1.373,0,0,0-.818-.277,2.235,2.235,0,0,1-1.563,1.022,2.921,2.921,0,0,0-1.621.832,3.169,3.169,0,0,1-.672,2.483c0,.117-.628.876-1.665,2.293a11.114,11.114,0,0,1-3.826,3.622,10.369,10.369,0,0,0,.7,2.162,9.45,9.45,0,0,0,.935,2.074,1.212,1.212,0,0,0,.92.146,1.972,1.972,0,0,1,1.46-.993,5.448,5.448,0,0,0,1.665-.584Z" transform="translate(0.013 19.64)"/><path class="a" d="M46.939,39.925c0,.146-.117.263-.351.321l-1.46.394a6.615,6.615,0,0,0-1.387.628v.672c0,.365-.117.555-.351.555a4.381,4.381,0,0,1-1.811-.7,6.265,6.265,0,0,0-1.928-.847.54.54,0,0,1-.19-.424,1.271,1.271,0,0,1,.2-.584,1.592,1.592,0,0,0,.234-.57c0-.146,0-1.46,0-3.929a6.426,6.426,0,0,0-.19-1.387,6.5,6.5,0,0,0-.2-.8c0-.175.438-.394,1.285-.657s1.46-.584,1.548-.862a9.348,9.348,0,0,0-.993-1.534,2.673,2.673,0,0,0-1.665-.409c-.248,0-.38-.117-.38-.365a.847.847,0,0,1,.657-.891,6.907,6.907,0,0,1,1.227,0c.482,0,.73-.161.73-.482a1.169,1.169,0,0,0-.131-.467,1.869,1.869,0,0,1-.1-.424,1.241,1.241,0,0,1,1.11-1.11,1.183,1.183,0,0,1,.57.146.453.453,0,0,1,.307.409,1.884,1.884,0,0,1-.234.716,1.826,1.826,0,0,0-.219.7,3.812,3.812,0,0,0,.891,1.636,5.2,5.2,0,0,0,1.344,1.46,1.986,1.986,0,0,0,.716.7,1.154,1.154,0,0,1,.526.862,10.716,10.716,0,0,1-.1,1.621,10.888,10.888,0,0,0-.1,1.636V37.4c0,.628.073,1.183.073,1.46a1.2,1.2,0,0,0,.131.482,1.154,1.154,0,0,1,.131.453Zm-2.921-.292a7.069,7.069,0,0,1-.321-2.527c0-.876,0-2.132.131-3.812a4.381,4.381,0,0,0-.891-.745,1.052,1.052,0,0,0-.248.555v3.111a7.96,7.96,0,0,1-.409,2.921,2.147,2.147,0,0,0,1.358.526h.292Zm15.233-7.127a4.221,4.221,0,0,1-.351.891,3.4,3.4,0,0,0-.351,1.46,4.089,4.089,0,0,0,.248,1.387,5.841,5.841,0,0,0-.248,1.417,7.171,7.171,0,0,0,.131,1.373.424.424,0,0,1,.175.394s0,.19,0,.482l-1.373.584a3.885,3.885,0,0,1-1.46.292c-.234,0-.453.219-.657.672a2.1,2.1,0,0,1-.57.891,14.6,14.6,0,0,1-2.921-1.314c-.219,0-.365,0-.424.248a3.622,3.622,0,0,0,0,.526c0,.365-.117.54-.351.54a3.184,3.184,0,0,1-1.65-.745,4.206,4.206,0,0,0-1.826-.8.453.453,0,0,1-.2-.394.92.92,0,0,1,.277-.57,1.314,1.314,0,0,0,.292-.482,26.463,26.463,0,0,0,.088-3.052,9.2,9.2,0,0,0-.175-2.454,1.972,1.972,0,0,0-.336-.453.774.774,0,0,1-.234-.54.964.964,0,0,1,.1-.336c.336-.1.526-.424.6-.979s.248-.759.54-.759a2.074,2.074,0,0,1,1.212.6,2.5,2.5,0,0,0,1.154.672.438.438,0,0,1,.161.351.92.92,0,0,1-.2.5,1.606,1.606,0,0,0-.234.409,5.141,5.141,0,0,0,0,.745,11.682,11.682,0,0,0,.1,1.329c0,.6.088,1.022.088,1.285a6.6,6.6,0,0,1-.307,2.205,1.548,1.548,0,0,0,1.037.453H51.8a4.133,4.133,0,0,0,.438-1.913V35.368a2.716,2.716,0,0,0-.409-1.46,3.753,3.753,0,0,1-.394-.73,1.008,1.008,0,0,1,.409-.672,1.168,1.168,0,0,0,.409-.847c0-.482.175-.745.5-.818a5.754,5.754,0,0,1,2.5,1.928,2.059,2.059,0,0,0-.584,1.636v4.571a1.241,1.241,0,0,0,1.139.409h.234s.088,0,.2-.146a15.033,15.033,0,0,1-.19-1.577V34.74a1.942,1.942,0,0,0-.263-1.052,2.541,2.541,0,0,1-.263-.467.876.876,0,0,1,.263-.643c.336-.307.5-.482.511-.5V31.7c0-.54.131-.8.38-.8a4.455,4.455,0,0,1,1.46.8q1.139.789,1.139.92Zm7.492,7.39a3.943,3.943,0,0,1-1.227.6,5.214,5.214,0,0,0-1.285.584,1.46,1.46,0,0,0-.57,1.2,3.7,3.7,0,0,1-.584.073,3.4,3.4,0,0,1-1.753-.7,5.681,5.681,0,0,0-1.709-.862.73.73,0,0,1-.117-.394,1.724,1.724,0,0,1,.219-.672,1.826,1.826,0,0,0,.219-.7V35.952a6.7,6.7,0,0,0-.175-1.271,6.777,6.777,0,0,1-.175-1.2c0-.409.263-.7.818-.891l1.358-.438a1.68,1.68,0,0,0,.686-.847.745.745,0,0,1,.672-.526,4.148,4.148,0,0,1,1.46.774,5.024,5.024,0,0,0,1.8.847,1.183,1.183,0,0,1,.161.628,4.133,4.133,0,0,1-.117.774,4.251,4.251,0,0,0-.117.789v2.687A8.121,8.121,0,0,0,66.7,39.9Zm-2.921-.555a6.733,6.733,0,0,1-.161-1.607c0-.277,0-.7,0-1.256V35.222a7.756,7.756,0,0,0-.131-1.46,1.212,1.212,0,0,0-.905-.365c0,.759-.088,1.358-.088,1.767a7.668,7.668,0,0,0,.088.964,7.3,7.3,0,0,1,.088.935,4.235,4.235,0,0,1-.1.8,5.7,5.7,0,0,0-.088.847,1.461,1.461,0,0,0,.088.526,2.731,2.731,0,0,0,.73.19.643.643,0,0,0,.394-.131Zm10.457-7.1a1.767,1.767,0,0,1-.6,1.037,1.9,1.9,0,0,0-.613,1.314c0,.248-.19.365-.555.365a.759.759,0,0,1-.818-.628c-.1-.424-.248-.628-.438-.628s-.307.277-.307.847a8.223,8.223,0,0,0,.073.847v.832a5.068,5.068,0,0,1-.394,2.629q.146.307,1.008.482c.526.117.789.321.789.643a.759.759,0,0,1-.526.745,3.169,3.169,0,0,0-.745.365,2.76,2.76,0,0,0-.175.789.5.5,0,0,1-.5.555,4.527,4.527,0,0,1-1.563-.716l-1.636-.993a1.154,1.154,0,0,1,0-.248.628.628,0,0,1,.248-.438,2,2,0,0,0,.277-.351,7.93,7.93,0,0,0,.277-2.775,14.825,14.825,0,0,0-.131-2.7c0-.1-.19-.263-.5-.482s-.453-.394-.453-.57a.672.672,0,0,1,.248-.409,3.491,3.491,0,0,0,.526-1.2c.146-.482.351-.73.628-.73a2.7,2.7,0,0,1,2.4,1.329c.263,0,.467-.234.613-.628s.321-.584.511-.584a3.739,3.739,0,0,1,1.358.482c.628.307.949.584.949.818Zm6.66,2.7a8.164,8.164,0,0,0-1.1-2.337c-.745-1.3-1.3-1.957-1.621-1.957a3.228,3.228,0,0,1-1.46,1.241c-.292.117-.862.307-1.694.54a2.162,2.162,0,0,0-1.125.526.19.19,0,0,0,0,.146.657.657,0,0,0,.175.409.8.8,0,0,1,.19.336,7.3,7.3,0,0,1,.161,1.811v3.68a1.314,1.314,0,0,1-.248.511.979.979,0,0,0-.234.54c0,.19.643.57,1.928,1.11a9.216,9.216,0,0,0,2.439.8c.365,0,.555-.263.555-.759V41.4a3.607,3.607,0,0,0,1.65-2.673c0-.613-.277-.92-.8-.905-.307,0-.467.2-.5.613a2.044,2.044,0,0,1-.2.891H78.033a2.118,2.118,0,0,1-.979-.263,2.351,2.351,0,0,1,1.052-1.9A19.935,19.935,0,0,1,80,36.04q1.022-.57,1.008-1.052Zm-2.921.424a1.2,1.2,0,0,1-.54.628.847.847,0,0,1-.248-.628V33.586a1.826,1.826,0,0,1,.584.862A3.024,3.024,0,0,1,78.018,35.368Zm11.2,4.674a1.46,1.46,0,0,1-.511.862,1.46,1.46,0,0,0-.511.906.862.862,0,0,0,0,.336.8.8,0,0,1-.5.161,2.644,2.644,0,0,1-1.358-.832c-.613-.555-.935-.964-.935-1.227a1.46,1.46,0,0,0,.438-1.11v-.5a3.887,3.887,0,0,1,0-.511,1.636,1.636,0,0,1,.2-.862.935.935,0,0,0-.6-.745l-.891-.424L84.3,36.4v1.782a2.089,2.089,0,0,0,.745,1.461,1.606,1.606,0,0,1-.555,1.008,1.548,1.548,0,0,0-.57,1.066,1.329,1.329,0,0,0,0,.336,1.066,1.066,0,0,1-.555.175A1.855,1.855,0,0,1,82.21,41.6a3.373,3.373,0,0,0-1.139-.8.949.949,0,0,1-.088-.336,1.169,1.169,0,0,1,.219-.57,1.11,1.11,0,0,0,.234-.526,46.647,46.647,0,0,0,.424-6.85,14.284,14.284,0,0,0-.657-4.528v-.146a.424.424,0,0,1,.015-.263.482.482,0,0,1,.336-.146,1.767,1.767,0,0,1,.657.19,6.193,6.193,0,0,0,.657.263,2.833,2.833,0,0,1,.832-.759,1.9,1.9,0,0,1,1.008-.351,2.235,2.235,0,0,1,1.066.394q.657.394.657.789v.906c-.088.365-.292.555-.613.555a.749.749,0,0,1-.774-.686.5.5,0,0,0-.146-.424,1.256,1.256,0,0,0-.73,1.11,11.871,11.871,0,0,0,0,1.46,1.738,1.738,0,0,0,.146.891.8.8,0,0,0,.453-.5c.146-.307.321-.453.54-.453a6.747,6.747,0,0,1,1.9.774q1.534.789,1.46,1.008a12.165,12.165,0,0,1-.628,1.212c-.424.759-.672,1.2-.745,1.3l.7.38c.321.19.482.365.482.54a6.966,6.966,0,0,1-.131,1.125,6.822,6.822,0,0,0-.131,1.11,1.68,1.68,0,0,0,.409,1.139,1.358,1.358,0,0,1,.394.657Zm-2.673-5.988a4.177,4.177,0,0,1-.8-.394,1.84,1.84,0,0,0-.876-.321.643.643,0,0,0-.38.1c-.131.862-.19,1.285-.19,1.271a1.942,1.942,0,0,0,.161.73c.686-.088,1.066-.117,1.11-.117a1.767,1.767,0,0,0,.832-1.271Z" transform="translate(18.115 11.996)"/><path class="a" d="M56.277,15.817l.526.832.716,1.081.686.891.511.92.613.935.467.832.424.672.467.613.57.935.672,1.2.613,1.139.628.979.57,1.037h.511l.57-1.037.628-.979.613-1.139.672-1.2.57-.935.467-.613.409-.672.467-.832.628-.935.511-.92.672-.891.73-1.081.511-.832,1.271.935.73-.993.467-.643.54-.643.555-.54,8.252,1.052v-.161l-7.784-1.46,2.337-3.418,5.608.277-.073-.131-5.126-.657,3.929-5.053-.19-.351-4.586,4.5L75.41,2.994h-.175l1.928,5.959-2.921,3.593L70.882,4.484l-.088.219L73.8,12.94l-2.045,2.833-.876-.219-.832-.307-.832-.219-.686-.307-1.212-.832-.818-.906-.54-.92L65.6,10.924,65.288,9.8,65.04,8.5V7.449l.38-1.46.526-.979L66.632,3.8l.993-1.066.759-.906,1.285-.759,1.212-.6L72.094.161,73.307.015h.906l.847.117,1.1.248L77.8.657l1.314.1,1.344.073h1.46l1.46-.19,1.46-.277L86.3.117V3.432l.307,1.125.38,1.3.234,1.212.38.979.38.993.38,1.052.146,1.066v2.278l-.219,1.052-.467,1.373L87.3,17.073l-.759.979-.6.759-.832.832-1.081.8-1.139.54-1.358.453H79.864l-1.3-.38-1.358-.526-1.46-.92-1.066-.979-.876-.8L73.277,17l-.292-.234-.307.453-.526.832-.511,1.022-.73.993L70.2,21.25l-.672.993-.686,1.125-.453.993-.57.935-.365.613.307.2.409-.351.365-.526L69,24.565l.774-.832.672-.774.774-.774.935-1.037.73-.57.716-.307.73.1.467.365.409.409.365.467-.1.672-.307.672-.467.409-1.1.57-.876.263-.774.365-.832.307-.511.2-.628.424L69,26.07l-.832.57L67.757,27l-.161.351.263.161.73-.161,1.139-.1L71.072,27l.716-.263.628-.161.57-.2.526-.088.672-.2.57-.2.73-.365.628-.161v.117a3.023,3.023,0,1,1,0,.351l-.54.1-.409.2-.424.2-.409.263-.511.2-.219.321.219.307.409.263h.511l.365.146.526.2.613.219.424.248.511.263.57.307.467.263.409.263.424.248.409.321.351.248a2.985,2.985,0,1,1-.847,2.074,2.921,2.921,0,0,1,.686-1.826l-.759-.6-.511-.219L77.8,29.6l-.716-.394-.57-.2-.774-.2-.482-.044-.248.2.1.307.146.365v.351a2.994,2.994,0,1,1-.979-.073l.263-.219v-.424l-.263-.307-.409-.307-.774-.2H72.27l-.832.1-.818.1-1.037.263-.891.248-.876.365L67.041,30l-.57.409L66,30.875,65.6,31.4l-.263.57v1.957l.146.832.263.73.161.716.146.57H61.71l.161-.57.161-.716.248-.73.161-.832V31.97l-.263-.57-.409-.526-.467-.467L60.732,30l-.774-.467L59.2,29.21l-.876-.248L57.285,28.7l-.832-.1-.818-.1H54.8l-.774.2-.409.307-.263.2v.424l.263.219a2.994,2.994,0,1,1-.964.073v-.351l.161-.365.1-.307-.263-.2-.409.1-.774.2-.57.2-.672.321-.57.248L49.135,30l-.745.672a2.921,2.921,0,0,1,.584,1.811,3.009,3.009,0,1,1-.832-2.074l.351-.248.409-.321.424-.248.409-.263.467-.263.57-.307.511-.263.424-.248.613-.219.526-.2.351-.146h.526l.409-.263.2-.307-.2-.321-.511-.2-.394-.292-.409-.2-.409-.2-.511-.073a2.921,2.921,0,1,1,0-.351V25.34l.628.161.716.365.57.2.672.2.526.1.57.2.613.161.73.263,1.344.248,1.139.1.73.161.248-.161L60.235,27l-.424-.365-.818-.57L58,25.5l-.613-.424-.54-.248-.818-.307-.774-.365-.891-.263-1.008-.526-.467-.409-.307-.672-.1-.672.351-.467.424-.409.394-.292.716-.1.73.307.73.57.92,1.037.774.774.686.774.774.832.467.672.351.526.424.351.307-.2-.365-.613-.57-.935L59.2,23.368l-.672-1.125-.789-.993-.716-1.183-.73-.993-.511-1.022-.526-.832-.321-.453L54.656,17l-.54.832-.832.832-1.052.979-1.46.92-1.373.526-1.285.38H46.448l-1.358-.453-1.154-.57-.993-.759-.832-.832-.6-.759-.759-.979-.54-1.256-.453-1.373-.219-1.052V12.064l.073-.906.146-1.066.453-1.052.38-.993.38-.979.161-1.227.38-1.3L41.8,3.418l.088-1.373L41.8,1.154V.088l1.46.248,1.46.277,1.46.19h1.46L48.989.73l1.3-.1L51.9.365,52.977.117,53.794,0H54.7l1.212.146,1.212.307,1.212.613,1.285.759.759.906L61.374,3.8l.672,1.212.54.979.38,1.46L62.879,8.5l-.146,1.3-.307,1.125-.307,1.139-.526.92-.935.906-1.212.832-.686.307-.832.219-.832.307-.818.219L54.233,12.94,57.256,4.7l-.088-.219-3.359,8.062L50.888,8.953l1.928-5.842h-.19L50.348,8.529,45.762,3.973l-.175.409,3.929,5.112-5.141.6v.131l5.725-.175,2.337,3.418-7.784,1.46v.161l8.266-1.052.5.54.526.643.467.643.745.993Z" transform="translate(18.227)"/></g></g></svg>