<svg xmlns="http://www.w3.org/2000/svg" width="115.721" height="74.794" viewBox="0 0 115.721 74.794"><defs><style>.a{fill:#7c1111;fill-rule:evenodd;}</style></defs><g transform="translate(-38.624 -18.75)"><path class="a" d="M50.307,77.241a11.912,11.912,0,0,1,.786,3.705,3.818,3.818,0,0,1-1.786,3.236c-.715.47-1.245.582-1.6.327l.327.408a6.206,6.206,0,0,0,1.48,1.419q1.245.908,1.715.582c.112-.071.163-.3.143-.663a.755.755,0,0,1,.265-.755,1.021,1.021,0,0,1,.674-.174.694.694,0,0,1,.561.286,1.5,1.5,0,0,1,0,1.633,3.409,3.409,0,0,1-1.143,1.245,11.228,11.228,0,0,1-1.745.878,11.575,11.575,0,0,0-1.725.857,3.644,3.644,0,0,0-1.164,1.317,3.92,3.92,0,0,1-.582.908c-.459.306-.806.276-1.021-.1a1.439,1.439,0,0,1-.194-1.021,2.623,2.623,0,0,1,.306-1.021,2.858,2.858,0,0,0-.153-2.644,22.059,22.059,0,0,0-1.531-2.48,34.519,34.519,0,0,0-3.236-4.205,1.409,1.409,0,0,0-1.021-.265c-.48,0-.786-.1-.908-.286a.929.929,0,0,1-.112-.643.7.7,0,0,1,.255-.572,1.613,1.613,0,0,1,.827-.255h.888c.367-.265.929-.735,1.654-1.388A15.606,15.606,0,0,1,43.958,76.3a4.205,4.205,0,0,1,3.328-.806,7.421,7.421,0,0,1,3.062,1.756ZM47.5,79.986a8.258,8.258,0,0,0-1.419-1.643c-.755-.623-1.358-.776-1.827-.459s-.3,1.307.725,2.827c.214.306.572.8,1.082,1.47s.868,1.164,1.092,1.48a.868.868,0,0,1,.439-.817,1.276,1.276,0,0,1,.929-.2A6.125,6.125,0,0,0,47.5,79.966Zm16.761-.429a4.226,4.226,0,0,1-.929,1.021,5.39,5.39,0,0,0-.97,1.021,1.439,1.439,0,0,0-.082,1.337,2.778,2.778,0,0,1-.51.286,3.3,3.3,0,0,1-1.888,0,5.7,5.7,0,0,0-1.919-.163.715.715,0,0,1-.265-.316,1.95,1.95,0,0,1-.051-.715,1.837,1.837,0,0,0-.061-.735l-1.153-2.858a7.717,7.717,0,0,0-.643-1.113,6.715,6.715,0,0,1-.612-1.021q-.235-.572.429-1.133t1.1-.919a1.684,1.684,0,0,0,.316-1.021.766.766,0,0,1,.429-.755,4.358,4.358,0,0,1,1.694.153,5.1,5.1,0,0,0,2.041.122,1.194,1.194,0,0,1,.388.51,5.175,5.175,0,0,1,.184.776,4.012,4.012,0,0,0,.194.776l1.021,2.511a8.492,8.492,0,0,0,1.347,2.286Zm-2.97.592a6.268,6.268,0,0,1-.755-1.429c-.112-.265-.255-.663-.439-1.194s-.327-.919-.429-1.174a7.9,7.9,0,0,0-.653-1.276,1.215,1.215,0,0,0-1.021,0c.235.735.429,1.3.592,1.684a8.167,8.167,0,0,0,.429.857,5.939,5.939,0,0,1,.429.847,4.981,4.981,0,0,1,.225.786,6,6,0,0,0,.225.817,1.541,1.541,0,0,0,.286.459,2.7,2.7,0,0,0,.755-.1.664.664,0,0,0,.316-.265Zm12.994-3.726a1.379,1.379,0,0,0-.255-.4,1.113,1.113,0,0,1-.265-.419c-.092-.327-.255-.817-.48-1.449s-.388-1.123-.48-1.439-.214-.9-.347-1.613-.255-1.235-.347-1.582a1.174,1.174,0,0,0-.755-.694,1.96,1.96,0,0,1-.919-.551,4.971,4.971,0,0,1-1.694-1.021c-.8-.612-1.235-1.021-1.317-1.327a1.909,1.909,0,0,1,0-.745,1.919,1.919,0,0,0,0-.755.459.459,0,0,0-.408-.306A1.1,1.1,0,0,0,65.67,65.5a1.021,1.021,0,0,0,.214.378,1.531,1.531,0,0,1,.214.388c.092.3-.112.521-.582.653a7.543,7.543,0,0,0-1.153.4.847.847,0,0,0-.4,1.021.337.337,0,0,0,.459.255,2.521,2.521,0,0,1,1.725-.061,7.747,7.747,0,0,1,1.439,1.256c0,.306-.459.735-1.256,1.266s-1.092.817-1.021,1.021c0,0,.122.2.408.725a7.257,7.257,0,0,1,.572,1.276c.684,2.4,1.021,3.664,1.021,3.807a1.358,1.358,0,0,1-.061.6,1.378,1.378,0,0,0,0,.633.572.572,0,0,0,.3.357,6.37,6.37,0,0,1,2.1.286,4.41,4.41,0,0,0,1.939.174c.225-.061.286-.276.184-.633l-.184-.653a5.389,5.389,0,0,1,1.164-1.021l1.3-.786c.214-.133.3-.265.255-.419Zm-2.97.551a1.45,1.45,0,0,1-.265.1,2.164,2.164,0,0,1-1.419-.122,8.166,8.166,0,0,0-.408-2.94c-.1-.337-.255-.837-.48-1.5s-.367-1.143-.459-1.48a1.021,1.021,0,0,1,.082-.6,4.3,4.3,0,0,1,1.021.47c.378,1.643.694,2.879.929,3.716a7.819,7.819,0,0,0,1.021,2.358Zm25.764-8.166a.9.9,0,0,1-.388.7,3.379,3.379,0,0,0-.7.694,2.909,2.909,0,0,0-.367,1.643,5.44,5.44,0,0,0,.48,1.776,5.43,5.43,0,0,1,.47,1.654c0,.4-.367.7-1.123.929a6.676,6.676,0,0,1-1.664.235A18.822,18.822,0,0,1,91.27,76.3a18.7,18.7,0,0,0-2.46-.2,2.041,2.041,0,0,0-1.419.48,1.6,1.6,0,0,1-1.021.47c-.521,0-.786-.286-.8-.9a1.021,1.021,0,0,1,.49-.868l.919-.684a1.674,1.674,0,0,0,.408-1.307,17.438,17.438,0,0,1,0-1.807c0-.857.082-1.46.071-1.817V66.084a10.706,10.706,0,0,0-.214-1.684c0-.184-.265-.378-.653-.582s-.582-.439-.592-.684c0-.429.449-.653,1.358-.663a10.607,10.607,0,0,1,1.276.061l.939.061a16.669,16.669,0,0,0,3.409-.286,2.042,2.042,0,0,0,.612-.357,1.235,1.235,0,0,1,.694-.327c.429,0,.643.276.653.837s-.327.939-1.021,1.021c-1.266.163-1.929.245-1.98.265-.7.286-1.021.97-1.021,2.041,0,2.276.071,3.624.092,4.083a25.733,25.733,0,0,0,.48,4c.143.612.449.908.929.9s.806-.592,1.021-1.735c.388-1.837.633-2.909.755-3.215a2.327,2.327,0,0,1,2.144-1.756c.449,0,.684.225.694.715Zm7.145-5.563c-.255.071-.521.357-.806.847s-.541.745-.745.735-.429-.184-.725-.5a1.092,1.092,0,0,0-.531-.653c-.327-.235-.49-.429-.48-.6a1.422,1.422,0,0,1,.572-.766,1.562,1.562,0,0,0,.612-.827,1.133,1.133,0,0,1,.3,0,1.6,1.6,0,0,1,1.123.633,3.46,3.46,0,0,1,.684,1.153Zm0,11.228a3.8,3.8,0,0,1-.776,1.021,1.358,1.358,0,0,0-.47,1.133.857.857,0,0,1-.6.265,7.146,7.146,0,0,1-1.327-.857A8.166,8.166,0,0,1,99.8,75.015a7.85,7.85,0,0,0,.878-3.583c.061-1.225.092-1.878.1-1.98a2.3,2.3,0,0,0-.551-1.7,2.041,2.041,0,0,1,.623-1.1,1.541,1.541,0,0,0,.531-1.194,1.021,1.021,0,0,1,.582-.153,1.929,1.929,0,0,1,1.092.633,3.2,3.2,0,0,0,1.092.786.725.725,0,0,1,.123.459,1.021,1.021,0,0,1-.163.449,7.788,7.788,0,0,0-.684,3.46q-.133,2.807.8,3.4Zm11.524,1.715a4.185,4.185,0,0,1-1.786.449c-.766.092-1.194.388-1.276.908a3.961,3.961,0,0,1-.112.561c-.082.163-.245.214-.49.174l-.337-.082-.327-.082c-.265,0-.439.133-.5.531a1.837,1.837,0,0,0,.316,1.194,1.735,1.735,0,0,1,.347.939.541.541,0,0,1-.378.419,1.2,1.2,0,0,1-.643.092,2.44,2.44,0,0,1-1.409-.857l-.908.572a1.531,1.531,0,0,1-1.021.265.837.837,0,0,1-.51-.337.715.715,0,0,1-.184-.572.571.571,0,0,1,.092-.174.725.725,0,0,0,.092-.153,1.9,1.9,0,0,0,1.347-1.143,8.085,8.085,0,0,0,.5-1.786l-.122-.337a1.327,1.327,0,0,0-.51.265.817.817,0,0,1-.541.214.459.459,0,0,1-.367-.306.919.919,0,0,1-.071-.51,1.817,1.817,0,0,1,.715-1.256c.378-.276.766-.541,1.153-.8.051-.357.122-.827.225-1.409s.214-1.2.245-1.409.071-.48.112-.857.071-.663.092-.827a1.021,1.021,0,0,0-.378-.9.939.939,0,0,1-.4-.8v-.1c.419,0,.725-.408.9-1.082s.49-.888,1.021-.817a2.419,2.419,0,0,1,1.194.755,3.512,3.512,0,0,0,.8.694.745.745,0,0,0,.755-.439c.225-.347.388-.51.5-.49a2.736,2.736,0,0,1,1.327.857,4.8,4.8,0,0,0,1.368,1.021.674.674,0,0,1,.112.459,1.225,1.225,0,0,1-.2.449,1.1,1.1,0,0,0-.2.449l-.408,2.582a13.045,13.045,0,0,0-.163,3.654Zm-2.041-6.482a1.827,1.827,0,0,0-1.021-.684.9.9,0,0,0-.225,0q-.184,2.174-.735,5.665c0,.327.153.521.623.592a1.174,1.174,0,0,0,.378,0c0-.194.071-.735.174-1.623.061-.663.122-1.194.184-1.6a9.678,9.678,0,0,1,.623-2.338Zm13.7,9.054c-.061.255-.337.5-.817.735a1.439,1.439,0,0,0-.827.776.582.582,0,0,0,0,.194.5.5,0,0,1,0,.225c0,.174-.214.225-.521.143a2.287,2.287,0,0,1-1.439-1.113c-.337-.582-.6-.888-.817-.949h-.459a6.846,6.846,0,0,1-.061.878q0,.184-.337.214a1.235,1.235,0,0,1-.49,0,2.572,2.572,0,0,1-1.133-.939,3.8,3.8,0,0,0-1.266-1.133.449.449,0,0,1-.225-.592c.061-.235.174-.337.347-.316.459,0,.847-.623,1.174-1.848.071-.265.153-.612.245-1.021l.153-.674a4.552,4.552,0,0,1,1.541,0,6.3,6.3,0,0,0,1.552,0,1.317,1.317,0,0,0,1.021-1.021,1.092,1.092,0,0,0-.225-1.021,1.756,1.756,0,0,0-.919-.612c-.449-.112-.7,0-.8.306,0,.092.112.265.408.521a.776.776,0,0,1,.327.827.8.8,0,0,1-.51.582,1.3,1.3,0,0,1-.837,0,1.337,1.337,0,0,1-.827-.7,1.562,1.562,0,0,1-.143-1.123,2.572,2.572,0,0,1,.725-1.143,1.307,1.307,0,0,1,1.123-.459,1.664,1.664,0,0,0,1.174-.418,1.449,1.449,0,0,1,1.133-.378,7.329,7.329,0,0,1,1.286,1.021l1.409,1.276a.561.561,0,0,1,.153.623,16.76,16.76,0,0,1-.674,1.878,17.426,17.426,0,0,0-.674,1.888,5.359,5.359,0,0,0-.327,2.246,3.063,3.063,0,0,0,.429.4.6.6,0,0,1,.153.7Zm-3.4-2.235a5.867,5.867,0,0,0,.092-.837,3.165,3.165,0,0,1,.214-.8.337.337,0,0,0-.245-.327.857.857,0,0,0-.684.2,1.123,1.123,0,0,1,0,.551,3.235,3.235,0,0,1-.235.582,4.638,4.638,0,0,0-.235.6.531.531,0,0,0,.4.745c.327.082.561-.153.715-.725Zm17.353,8.758a6.125,6.125,0,0,1-.776.408,1.848,1.848,0,0,0-1.021,1.113,1.225,1.225,0,0,1-.459-.092,4,4,0,0,1-1.021-1.562,13.206,13.206,0,0,1-.633-1.388c-.235-.112-.551,0-.949.378a2.3,2.3,0,0,0-.643.888,1.021,1.021,0,0,1-.582-.082,1.817,1.817,0,0,1-.755-1.153,2.909,2.909,0,0,0-.582-1.368v-.337l-.847.153q-.286.082-.582.7c-.153.337-.337.459-.531.367a2.368,2.368,0,0,1-1.092-1.235,9.859,9.859,0,0,0-.8-1.47v-.122c-.051.1.2-.143.766-.725a6.758,6.758,0,0,0,1.225-1.725c.143-.306.367-.847.684-1.613s.51-1.225.694-1.592a3.06,3.06,0,0,0-.276-.592c-.143-.245-.184-.439-.112-.572a1.939,1.939,0,0,1,.868-.429,1.511,1.511,0,0,0,.837-.908.827.827,0,0,1,.786,0,2.348,2.348,0,0,1,1.021.837,5.756,5.756,0,0,1,.306.806.857.857,0,0,0,.419.561.949.949,0,0,0,1.082-.265q.582-.5.827-.4a3.062,3.062,0,0,1,1.021.847,2.235,2.235,0,0,1,.51,1.164,1.184,1.184,0,0,0,.8-.276,1.266,1.266,0,0,1,.817-.276l1.378,1.49c.674.766.97,1.256.868,1.47a1.613,1.613,0,0,1-.531.541,2.123,2.123,0,0,0-.531.5,20.719,20.719,0,0,0-1.276,2.409c-.071.143-.367.837-.9,2.041a1.021,1.021,0,0,0,0,.735,1.021,1.021,0,0,1,0,.715Zm-.184-7.145a1.3,1.3,0,0,0-.817-1.021,1.746,1.746,0,0,0-.51.561,5.737,5.737,0,0,1-.459.653,5.237,5.237,0,0,1-.337,1.256c-.112.306-.3.7-.531,1.184l-.582,1.143a1.337,1.337,0,0,0-.1.96,1.021,1.021,0,0,1,.071.582.6.6,0,0,1-.1.163,2.43,2.43,0,0,0,.9-.449,18.013,18.013,0,0,1,.766-2.276,13.373,13.373,0,0,1,1.7-2.787Zm-5.165,1.337c.153-.306.357-.786.623-1.419s.47-1.113.612-1.429c.061-.112,0-.3-.092-.541a1.021,1.021,0,0,0-.367-.47c-.235-.112-.459.061-.674.531a3.423,3.423,0,0,0-.194.449,2.573,2.573,0,0,1-.143.347c-.143.316-.378.776-.694,1.378s-.551,1.021-.7,1.378a1.362,1.362,0,0,1-.163.357,3.464,3.464,0,0,0-.153.337.7.7,0,0,0,.122.806c.2.265.286.449.235.561A6.686,6.686,0,0,0,136.009,79.476ZM154.23,80.5a1.643,1.643,0,0,0-1.143.276c-.51.255-.857.327-1.021.2a1.3,1.3,0,0,1-.337-.806,1.092,1.092,0,0,0-.092-.847c-.143-.367-.174-.623-.071-.755a1.479,1.479,0,0,1,.9-.337,1.511,1.511,0,0,0,.96-.357l.255.133a1.613,1.613,0,0,1,.6,1.153,3.481,3.481,0,0,1,0,1.337Zm-6.124,9.411c-.316-.663.082-1.766,1.184-3.277a8.054,8.054,0,0,1,2.46-2.542.847.847,0,0,0,.378-.276.735.735,0,0,0,.153-.459,2.9,2.9,0,0,1-.49-1.256,2.041,2.041,0,0,0-.572-1.123,1.021,1.021,0,0,0-.572-.184,1.592,1.592,0,0,1-1.092.715,2.041,2.041,0,0,0-1.133.582,2.225,2.225,0,0,1-.47,1.735l-1.164,1.6a7.768,7.768,0,0,1-2.644,2.491,7.146,7.146,0,0,0,.5,1.511,6.36,6.36,0,0,0,.643,1.439.857.857,0,0,0,.643.112,1.347,1.347,0,0,1,1.021-.694,3.725,3.725,0,0,0,1.143-.419Z" transform="translate(0 0.886)"/><path class="a" d="M83.259,54.485c0,.1-.082.174-.245.225l-1.021.276a3.879,3.879,0,0,0-.96.429v.48c0,.255-.082.388-.245.388a3.062,3.062,0,0,1-1.276-.49,4.379,4.379,0,0,0-1.347-.582.388.388,0,0,1-.133-.306,1.021,1.021,0,0,1,.143-.408,1.021,1.021,0,0,0,.163-.4V51.352a4.49,4.49,0,0,0-.133-.959,3.869,3.869,0,0,0-.143-.561c0-.133.306-.286.9-.459s1.021-.408,1.082-.612a6.238,6.238,0,0,0-.694-1.021,1.8,1.8,0,0,0-1.164-.286.235.235,0,0,1-.265-.265.572.572,0,0,1,.459-.612,4.828,4.828,0,0,1,.857,0c.347,0,.51-.112.51-.337a.908.908,0,0,0-.071-.3,1.092,1.092,0,0,1-.071-.3.745.745,0,0,1,.255-.521.725.725,0,0,1,.521-.255.837.837,0,0,1,.4.112q.214.112.214.276a1.194,1.194,0,0,1-.163.51,1.184,1.184,0,0,0-.153.49A2.725,2.725,0,0,0,81.3,47.4a3.389,3.389,0,0,0,.939,1.021,1.562,1.562,0,0,0,.51.551.786.786,0,0,1,.367.6,7.63,7.63,0,0,1-.071,1.133,7.609,7.609,0,0,0-.071,1.143,8.1,8.1,0,0,0,.051,1.021,6.594,6.594,0,0,1,0,1.021.878.878,0,0,0,.092.337.806.806,0,0,1,.092.316Zm-2.042-.2a5.257,5.257,0,0,1-.225-1.776q0-.908.092-2.664a2.746,2.746,0,0,0-.623-.51.7.7,0,0,0-.174.388v2.174A5.6,5.6,0,0,1,80,53.934a1.552,1.552,0,0,0,.949.357ZM91.863,49.3a3.2,3.2,0,0,1-.245.623,2.378,2.378,0,0,0-.245,1.021,2.756,2.756,0,0,0,.174.959,4.083,4.083,0,0,0-.133,1.082,5.011,5.011,0,0,0,.092.96.306.306,0,0,1,.133.276s0,.122,0,.327l-.96.419a2.674,2.674,0,0,1-1.021.2c-.163,0-.316.153-.459.47a1.48,1.48,0,0,1-.388.623,11.137,11.137,0,0,1-2.041-.929.276.276,0,0,0-.3.184v.367a.331.331,0,0,1-.306.347,2.225,2.225,0,0,1-1.153-.521,2.878,2.878,0,0,0-1.2-.592.337.337,0,0,1-.143-.276.643.643,0,0,1,.194-.4.919.919,0,0,0,.2-.337,18.624,18.624,0,0,0,.061-2.154,7.146,7.146,0,0,0-.112-1.715,1.726,1.726,0,0,0-.245-.316.561.561,0,0,1-.163-.378.653.653,0,0,1,.071-.245c.235-.061.367-.3.419-.674s.174-.541.378-.541a1.409,1.409,0,0,1,.847.429,1.746,1.746,0,0,0,.806.47.306.306,0,0,1,.112.245.674.674,0,0,1-.143.347.7.7,0,0,0-.153.286,2.492,2.492,0,0,0,0,.521,8.305,8.305,0,0,0,.071.929c0,.419.061.715.061.9a4.665,4.665,0,0,1-.235,1.541,1.133,1.133,0,0,0,.725.316h.153a2.838,2.838,0,0,0,.306-1.327V51.3a2.042,2.042,0,0,0-.276-1.072,2.48,2.48,0,0,1-.286-.5.715.715,0,0,1,.286-.48.8.8,0,0,0,.286-.582c0-.337.122-.531.347-.582a4.175,4.175,0,0,1,1.745,1.347,1.46,1.46,0,0,0-.408,1.153v3.236a.9.9,0,0,0,.8.286h.163L89.822,54a8.166,8.166,0,0,1-.1-1.021v-2.2a1.337,1.337,0,0,0-.184-.725,1.418,1.418,0,0,1-.184-.337.612.612,0,0,1,.184-.439l.357-.347v-.276c0-.367.092-.561.265-.561a3.368,3.368,0,0,1,1.021.561c.531.378.8.592.8.653ZM97.1,54.465a3.062,3.062,0,0,1-.857.419,3.93,3.93,0,0,0-.9.4,1.021,1.021,0,0,0-.4.837,1.878,1.878,0,0,1-.408.061,2.327,2.327,0,0,1-1.225-.49,3.715,3.715,0,0,0-1.194-.6.49.49,0,0,1-.092-.276,1.3,1.3,0,0,1,.153-.48,1.194,1.194,0,0,0,.153-.48V51.7a4.706,4.706,0,0,0-.122-.878,4.693,4.693,0,0,1-.122-.847c0-.276.184-.48.572-.612s.633-.214.949-.306a1.164,1.164,0,0,0,.48-.592c.112-.245.265-.378.47-.378a3.062,3.062,0,0,1,1.021.541,3.481,3.481,0,0,0,1.256.6.786.786,0,0,1,.112.429,2.358,2.358,0,0,1-.082.551,2.694,2.694,0,0,0-.071.541v1.888a5.451,5.451,0,0,0,.265,1.827Zm-2.041-.388a4.768,4.768,0,0,1-.112-1.123V51.2a5.339,5.339,0,0,0-.092-1.021.857.857,0,0,0-.633-.265v1.245a4.729,4.729,0,0,0,0,.663,5.275,5.275,0,0,1,.061.653,3.06,3.06,0,0,1-.071.572,4,4,0,0,0-.061.582,1.082,1.082,0,0,0,.061.378,2.338,2.338,0,0,0,.521.133A.439.439,0,0,0,95,54.047Zm7.237-4.991a1.2,1.2,0,0,1-.419.725,1.286,1.286,0,0,0-.429.908c0,.174-.133.265-.388.265a.541.541,0,0,1-.572-.439c-.071-.3-.174-.439-.306-.439s-.214.194-.214.592v.592c0,.265.051.459.051.582a3.471,3.471,0,0,1-.276,1.827c.071.143.306.265.7.347s.551.225.551.449a.551.551,0,0,1-.367.521,3.185,3.185,0,0,0-.521.245,2.041,2.041,0,0,0-.122.551.353.353,0,0,1-.347.4,3.144,3.144,0,0,1-1.092-.51l-1.133-.684a.48.48,0,0,1,0-.174.47.47,0,0,1,.174-.316.857.857,0,0,0,.194-.235,5.583,5.583,0,0,0,.194-1.939,10.277,10.277,0,0,0-.092-1.888c0-.082-.133-.194-.347-.337s-.316-.286-.316-.4a.439.439,0,0,1,.174-.286,2.338,2.338,0,0,0,.367-.837c.1-.347.255-.521.439-.521a1.9,1.9,0,0,1,1.674.939c.184,0,.327-.163.429-.439s.225-.408.357-.408a2.746,2.746,0,0,1,.949.327c.449.225.663.419.663.582Zm4.655,1.878a5.839,5.839,0,0,0-.766-1.623c-.521-.908-.9-1.368-1.133-1.368a2.256,2.256,0,0,1-1.021.868c-.2.082-.592.2-1.184.367a1.582,1.582,0,0,0-.786.378.133.133,0,0,0,0,.1.459.459,0,0,0,.122.276.582.582,0,0,1,.133.245,5,5,0,0,1,.123,1.266V52.75a12.125,12.125,0,0,1,0,1.3.919.919,0,0,1-.174.357.653.653,0,0,0-.163.378q0,.2,1.347.766a6.227,6.227,0,0,0,1.7.572c.265,0,.388-.184.388-.531v-.1a2.521,2.521,0,0,0,1.153-1.868c0-.439-.194-.643-.561-.633-.214,0-.327.143-.347.429a1.429,1.429,0,0,1-.143.622h-.715a1.48,1.48,0,0,1-.684-.184,1.633,1.633,0,0,1,.735-1.327,13.005,13.005,0,0,1,1.327-.8q.715-.378.7-.735Zm-2.042.306a.786.786,0,0,1-.378.429.551.551,0,0,1-.174-.429V50.045a1.256,1.256,0,0,1,.408.6,2.236,2.236,0,0,1,.143.653Zm7.829,3.266a1.021,1.021,0,0,1-.357.592,1.021,1.021,0,0,0-.357.643.632.632,0,0,0,0,.235.613.613,0,0,1-.347.112,1.848,1.848,0,0,1-.949-.582c-.429-.4-.653-.684-.653-.868a1.021,1.021,0,0,0,.306-.766v-.715a1.2,1.2,0,0,1,.143-.592.643.643,0,0,0-.408-.521l-.633-.306-.184.214.061,1.256a1.358,1.358,0,0,0,.521,1.021,1.092,1.092,0,0,1-.4.715,1.021,1.021,0,0,0-.4.745.849.849,0,0,0,0,.225.684.684,0,0,1-.388.133,1.276,1.276,0,0,1-.806-.449,2.521,2.521,0,0,0-.8-.561.562.562,0,0,1,0-.225.755.755,0,0,1,.143-.4.949.949,0,0,0,.174-.367,34.289,34.289,0,0,0,.286-4.787,10.1,10.1,0,0,0-.459-3.175v-.092a.314.314,0,0,1,.316-.337,1.021,1.021,0,0,1,.459.133l.47.184a1.806,1.806,0,0,1,.572-.531,1.327,1.327,0,0,1,.7-.245,1.562,1.562,0,0,1,.745.276c.306.184.459.357.459.541v.633c-.061.265-.2.388-.429.388a.515.515,0,0,1-.541-.47.388.388,0,0,0-.1-.306.908.908,0,0,0-.51.776,8.659,8.659,0,0,0,0,1.021,1.266,1.266,0,0,0,.1.623c.122,0,.225-.153.316-.357a.432.432,0,0,1,.378-.306,4.726,4.726,0,0,1,1.337.541c.7.357,1.021.592,1.021.7a9.257,9.257,0,0,1-.439.837q-.439.817-.521.919l.49.265q.337.194.337.367a4.849,4.849,0,0,1-.092.8,4.675,4.675,0,0,0-.092.766,1.154,1.154,0,0,0,.286.8,1.021,1.021,0,0,1,.276.47Zm-1.868-4.185a2.643,2.643,0,0,1-.551-.276,1.409,1.409,0,0,0-.612-.235.551.551,0,0,0-.276.071l-.133.9a1.306,1.306,0,0,0,.112.5c.48-.051.745-.082.786-.071a1.286,1.286,0,0,0,.643-.857Z" transform="translate(0.815 0.542)"/><path class="a" d="M89.868,29.794l.357.582.51.755.47.612.357.653.439.653.316.572.3.47.327.439.4.653.47.827.429.8.439.694.4.715h.357l.4-.715.439-.694.429-.8.47-.827.4-.653.327-.439.3-.47.316-.572.439-.653.357-.653.47-.612.51-.755.357-.582.888.653.521-.694.327-.449.367-.459.347-.367,5.767.735V29.1l-5.441-1.021,1.633-2.389,4,.122v-.092l-3.593-.419,2.746-3.573-.122-.245-3.215,3.185L103.321,20.8h-.133l1.347,4.134-2.041,2.5-2.45-5.563-.061.143,2.113,5.767-1.429,1.98-.561-.153-.582-.214-.582-.184-.48-.2-.847-.582-.633-.643-.367-.612-.245-.8-.214-.8-.1-.9-.061-.745.265-1.021.378-.694.47-.847.694-.735.51-.612.9-.531.847-.419.847-.214.847-.1h.633l.6.082.755.174,1.153.184.919.082.939.051h1.021l1.021-.122,1.021-.194,1.021-.174v.745l-.061.633.061.949.2.8.265.9.163.847.265.694.265.684.265.745.1.745.051.633v.949l-.153.745-.316.949-.378.857-.531.684-.419.531-.582.582-.694.531-.8.367-.949.316-1.164.061-.908-.265-.949-.378-1.021-.633-.735-.684-.592-.592-.367-.582-.194-.153-.225.306-.367.582-.357.725-.51.684-.5.837-.582.684-.47.8-.327.684-.4.653-.255.439.214.143.3-.255.225-.418.327-.47.541-.582.47-.541.551-.541.643-.725.51-.4.51-.214.5.071.327.245.286.3.255.327-.071.47-.214.47-.327.286-.755.4-.623.184-.541.255-.582.214-.357.143-.429.286-.694.4-.572.4-.3.255-.1.255.174.112.51-.112.8-.071.939-.184.51-.184.429-.1.4-.143.367-.071.47-.153.4-.143.5-.255.439-.1v.082a2.041,2.041,0,1,1,0,.245l-.378.071-.286.143-.286.143-.3.184-.357.143-.143.214.143.225.286.174h.367l.245.112.367.143.429.143.3.184.357.184.4.214.327.184.286.174.3.184.286.214.245.174a2.041,2.041,0,1,1-.153.174l-.531-.419-.357-.143-.4-.184-.47-.214-.4-.143-.459-.122-.286-.071-.184.143.071.214.112.255V39.7a2.093,2.093,0,1,1-.684-.051l.184-.163V39.2l-.184-.214-.286-.214-.541-.153h-.582l-.582.082-.572.071-.725.174-.612.184-.623.255-.541.327-.4.286-.327.327-.286.357-.184.4v.653l.082.755.1.582.184.5.112.51.1.4H93.665l.1-.4.112-.51.184-.5.1-.582V41.1l-.184-.4-.286-.357-.327-.327-.4-.286-.5-.316-.623-.255-.612-.184-.725-.174-.572-.071-.582-.082h-.582l-.541.153-.286.214-.184.214v.286l.184.163a2.1,2.1,0,1,1-.684.051v-.245l.112-.255.071-.214-.184-.143-.286.071-.541.143-.4.143-.47.214-.4.184-.357.143-.531.419a1.611,1.611,0,1,1-.092-.184l.245-.174.286-.214.3-.184.286-.174.327-.184.4-.214.357-.184.3-.184.429-.143.367-.143.245-.112h.367l.286-.174.143-.225-.143-.214-.357-.143-.3-.184-.286-.143-.255-.174-.378-.071a2.164,2.164,0,1,1,0-.245V36.45l.439.1.5.255.4.143.47.153.367.071.4.143.429.1.51.184.939.184.8.071.51.112.174-.112-.1-.255-.347-.225-.572-.4-.694-.4-.429-.286-.347-.174-.572-.214-.541-.255-.623-.184-.755-.4-.327-.286-.245-.47v-.47l.255-.327.286-.3.327-.245.5-.071.51.214.51.4.643.725.551.541.47.541.541.582.327.47.245.357.3.255.214-.143-.255-.439-.4-.653-.327-.684-.5-.755-.47-.684-.5-.837-.51-.684-.357-.725-.316-.623L89,30.458l-.194.153-.367.582-.592.592-.735.684-1.021.633-.949.378-.908.265-1.164-.061-.99-.316-.8-.367-.694-.531-.582-.582-.419-.531-.572-.684-.378-.857-.316-.949-.153-.745V26.538l.1-.745.265-.745.265-.684.265-.694.163-.847.265-.9.2-.8.061-.949-.061-.633V18.8l1.021.174,1.021.194,1.021.122h1.021l.939-.051.919-.082,1.123-.153.755-.174.6-.082h.633l.847.1.847.214.847.419.9.531.531.643.694.735.47.847.378.694.265,1.021-.061.745-.1.9-.214.8-.265.8-.367.633-.633.643-.847.582-.48.2-.582.163-.582.214-.561.153-1.429-2,2.113-5.716-.061-.143-2.327,5.624-2.041-2.5,1.347-4.134h-.133l-1.541,3.869L82.549,21.6l-.122.245,2.715,3.491-3.593.419v.092l4-.122,1.633,2.389-5.441,1.021v.112l5.767-.735.347.367.367.459.327.449.521.694Z" transform="translate(0.821)"/></g></svg>