<svg xmlns="http://www.w3.org/2000/svg" xmlns:xlink="http://www.w3.org/1999/xlink" width="1440" height="540" viewBox="0 0 1440 540"><defs><style>.a{fill:#fff;stroke:#707070;}.b{clip-path:url(#a);}.c{fill:rgba(0,0,0,0);}.d{fill:#f5f7f9;}.e{fill:#d6dce1;opacity:0.5;}.f{fill:#8595a4;}</style><clipPath id="a"><rect class="a" width="1440" height="540" transform="translate(-735 2421)"/></clipPath></defs><g class="b" transform="translate(735 -2421)"><g transform="translate(7.058 2382.161)"><g transform="translate(0)"><rect class="c" width="712.629" height="641.194" transform="translate(0)"/><rect class="d" width="712.629" height="641.194" transform="translate(0)"/><path class="e" d="M506.979,626.688v0l5.943-37.656,20.947,2.546-4.953,29.387-21.935,5.724Zm-343.646-3.18h0l-2.266-27.1,62.277-6.107,4.246,23.282Zm279.247-2.162h0l-7.5-13.613,24.911-6.361,4.1,13.994-21.513,5.98Zm173.238-.508h0L596.145,617.4,608.6,559.9l18.4,3.69-11.181,57.25ZM314.35,618.292h0l-28.164-9.67.079-.176,0-.009.087-.2.053-.12.006-.013.03-.069.01-.022c1.222-2.744,3.069-6.89,4.685-10.717l29.581,6.232-6.369,14.757Zm273.445-2.417h0l-19.53-3.436,7.644-37.4,20.238,2.291-8.351,38.546ZM468.2,614.22h0v0l-3.962-13.991,40.055-10.3-2.407,14.884L468.2,614.22ZM383,612.058h0l3.68-29.389,17.833-2.162,12.6,23.155L383,612.058Zm-229.29-2.544h0l-48.4-5.852,2.971-37.912,42.037,2.162,3.4,41.6Zm-52.652-6.361h0l-15.142-1.781,4.1-36.513,13.871.765-2.832,37.528Zm252.924-.509h0l-24.343-5.089,16.7-19.719,15.428,5.725-7.785,19.082Zm77.278-1.908v0h0l-11.183-20.607,12.6-22.263,75.155,9.8-2.264,13.994Zm-353.839-.509h0L64.4,598.7l3.68-36.386,13.446,1.654-4.1,36.256Zm-17.267-2.035h0L21.8,593.611l5.8-36.259,36.374,4.453-3.821,36.384Zm264.817-1.653h0l-30.855-6.488a372.176,372.176,0,0,0,13.871-41.855l17.692.509,17.267,26.589-17.976,21.244ZM653.328,594.5h0l-.707-16.538,22.645-22.39c1.161,8.042,4.549,29.649,5.944,38.293ZM160.5,588.649h0l-1.7-20.991,59.586-4.581,3.68,19.592Zm211.6-8.142h0l8.351-20.737h1.982a36.473,36.473,0,0,0,9.908-1.4l10.049,18.447Zm-8.777-.636h0l-14.294-5.343L365.3,555.317a30.242,30.242,0,0,0,6.653,2.927l-8.633,21.626Zm54.349-4.07,0,0-13.162-24.17a27.387,27.387,0,0,0,8.634-14.884l24.345,3.69L417.672,575.8ZM291.137,573.51l-62.982-4.326-4.246-23.153,75.438,1.908c-1.88,6.478-4.514,15.236-8.21,25.569Zm361.2-.89v0l-3.255-72.385,16.135,2.417,9.2,48.089-22.076,21.88Zm-502.449-8.651h0l-59.443-3.054,2.123-18.193,55.765,1.4,1.557,19.845Zm8.636,0h0l-1.7-19.592,58.313,1.526,2.548,13.486Zm-76.573-3.816h0L68.5,558.5l1.7-16.411,13.73.382-1.982,17.682Zm545.76-.509h0l-18.255-3.688,13.022-60.048,17.267,2.673Zm-154.981-.509h0l-38.072-4.962,7.36-12.976,33.968,5.216-3.255,12.72ZM64.4,557.989h0l-36.231-4.453,1.982-12.34,35.807.89-1.557,15.9Zm501.6-5.6h0l-46-7,4.528-28.88,46.99,8.269L566,552.391Zm-183.572-5.217c-9.365,0-16.983-6.848-16.983-15.266a14.875,14.875,0,0,1,5.041-10.782,18.214,18.214,0,0,1,23.937,0,14.427,14.427,0,0,1,4.99,10.782C399.413,540.326,391.793,547.175,382.428,547.175Zm-56.189-11.323h0l-34.109-.89,2.407-16.538,8.21-12.213,27.032,11.7-3.537,17.936Zm128.655-.507h0l-41.467-6.361a25.139,25.139,0,0,0-3.4-10.177l54.49-32.187-9.624,48.724h0Zm-166.87-.509-63.832-1.654,5.379-25.571,60.577,11.7-2.125,15.52h0Zm-72.607-1.781-56.9-1.4,4.387-13.485,54.633,5.089-2.125,9.794ZM149.745,531.4h0l-37.081-.89,1.414-23.026,40.339,9.286L149.745,531.4Zm-45.717-1.272h0l-17.548-.508V507.992l19.106-1.274-1.557,23.407Zm-21.8-.381h0l-50.1-1.272,2.689-16.665L82.231,508.5v21.247Zm432.249-4.453h0l-47.27-8.016,4.669-23.918,44.443,20.61-1.841,11.321Zm-296.233-5.725h0l-25.191-2.544,14.011-52.288,20.949,9.161-9.766,45.671Zm-29.441-2.934h0l-24.625-2.281,19.39-59.794,19.533,8.4-14.3,53.679Zm219.1-1.01,0,0h0a30.652,30.652,0,0,0-4.1-4.2l15-42.364,47.556,8.651-.707,3.817Zm-116.342,0h0l-23.068-4.453,9.483-15.775,21.09,9.159-7.5,11.067ZM155.83,513.081h0l-21.511-4.962,4.53-20.611,24.627,1.908-7.643,23.662Zm-120.3-5.344h0l4.387-27.861L107,484.964l-1.132,17.811Zm355.392-2.821h0a39.468,39.468,0,0,0-8.49-.994h-1.273l-15-53.687,34.109-9.541,7.643,17.048-16.985,47.175Zm291.846-7.483h0l-54.489-8.4,7.644-30.279c16.945,3.369,36.66,7,51.943,9.8l-5.1,28.878ZM165.88,481.784h0l-24.909-1.908,12.172-38.548,22.647,9.8-9.908,30.658Zm-99.217-7.632h0l-25.475-1.909,11.747-74.3L95.4,416.266,66.664,474.151ZM662.1,408.5h0l-50.811-6.361,6.228-30.15,49.255,7.887L662.1,408.5Zm38.073-36.257h0l-17.124-2.8,4.1-19.719,16.276,2.925-3.255,19.591ZM678.8,368.813h0l-21.654-3.436,4.389-20.228,21.229,3.817L678.8,368.811Zm25.051-20.1h0l-41.61-7.506,4.246-19.083,40.337,8.778-2.971,17.809h0Zm-39.772-34.986h0L628.7,305.965l9.2-42.109,35.525,5.979-9.342,43.891ZM52.651,277.468h0l-20.663-3.434,7.643-39.184,17.549,2.163-4.528,40.453Zm-24.911-4.2h0L12.6,270.853l14.294-87.4,17.692,2.927L27.741,273.27Zm658-9.162h0l-46.281-7.887L647.24,220.6,693.1,228.87l-7.36,35.238Zm7.926-38.929h0l-45.714-8.269,10.19-47.2,45.292,7.633-9.766,47.834Zm-627-47.961h0l-8.915-1.526-16.56-71.625,34.109,5.6-8.633,67.554Zm-13.441-2.292h0l-31.845-5.343-4.387-30.023,26.891-5.089,9.342,40.452ZM686.729,161.57h0L674.7,159.534l3.68-35.748h14.437l-6.087,37.782Zm-16.136-2.8h0l-8.065-1.4L658,58.394l22.786.382-10.19,100Zm-16.7-2.8h0l-41.185-7c1.007-5.423,2.817-14.71,5.378-27.606l34.536,3.307,1.273,31.3ZM548.452,122.645l0,0a30.57,30.57,0,0,0-9.342-8.778l12.031-58.649,26.609,51.525-29.3,15.9Zm103.884-1.912h0l-54.206-5.216,4.1-20.737L651.2,94.4l1.132,26.334Zm41.045-.89H678.8l6.227-61.065,18.116.254-9.765,60.811Zm-103.32-7.379,0,0L553.969,42.365,601.241,54.96l-11.179,57.5ZM513.209,110.3h0L472.445,35.75l30.571-4.581,10.9,79H513.9a.865.865,0,0,0-.327.059l-.022.006A1.124,1.124,0,0,1,513.209,110.3Zm12.311-.889h0a24.385,24.385,0,0,0-3.112-.127L511.507,29.9l31.28-4.833L525.52,109.41ZM95.4,101.395h0l1.7-35.875h.165c8.885,0,18.353-.128,28.142-.381L128.232,98.6ZM65.96,100.251h0l-25.334-4.2.848-8.652,21.8-6.106,2.689,18.953Zm306-1.781h0l9.766-35.75,20.24,6.87,3.4,24.172Zm-239.621-.382h0l-2.83-33.2A354.9,354.9,0,0,0,184,59.285l5.237,33.967ZM36.375,95.416h0L0,89.436,4.671,59.921l.069.007h.014l.051.006.1.01.048,0,.021,0,.037,0,.038,0,.032,0H5.1l.027,0,.067.007.065.007c6.958.725,18.6,1.938,34.508,2.992l-3.4,32.439Zm566.708-4.58h0L609.733,56.1l39.773.254,1.557,34.1Zm-191.922-17.3h0l-7.5-53.05,15.992-3.945c2.294,6.037,6.391,17.033,11.509,30.781l.013.036.148.394.058.156.325.874.055.144.038.105.014.04.1.271.285.765.008.019,0,.009c3.907,10.506,5.863,15.747,6.975,18.695Zm-220.652-1.4h0l-2.123-13.612c15.06-3.217,27.393-7.54,36.657-12.85a111.772,111.772,0,0,0,12.455-8.65l7.36,25.444Zm252.923-4.071h0L423.756,15.522,443,10.687l28.732,52.542ZM311.8,65.773h0L289.014,57.25l11.04-35.114,26.185,8.142L311.8,65.772Zm89.45-.509h0L361.056,51.525l9.483-18.7L398,41.855l3.255,23.406ZM98.932,57.631h0c-6.228,0-12.656-.128-19.1-.381l2.405-21.629L98.366,37.4l.566,20.227Zm8.634,0h0L106.576,18.7l51.66,5.725,2.548,30.533A486,486,0,0,1,107.567,57.631ZM285.193,55.85h0L247.686,41.855l-3.255-11.068A161.228,161.228,0,0,0,261.982,10.3l34.109,10.56-10.9,34.984ZM22.362,53.814h0L19.3,53.528l-.087-.008-1.2-.113-.091-.009-1.413-.131-2.115-.2-1.942-.18h-.016l-2.549-.237-.47-.043-.045,0-.319-.03-3.106-.287L9.908,27.481l17.267,1.908L22.363,53.813h0Zm626.718-1.272h0L610.3,52.288,615.537,25.7l32.269-1.781,1.275,28.623Zm55.34-1.145h0l-19.106-.254-1.7-29.133,25.759-1.4L704.421,51.4Zm-23.495-.254h0l-23.211-.382L656.44,23.536l22.786-1.272,1.7,28.878Zm-78.976,0h0L554.535,38.548l5.094-24.935,47.415,11.323L601.95,51.141Zm-244.715-.89h0l-26.182-8.905L345.063,6.616l27.6,7.76-5.1,15.52L357.235,50.252Zm40.2-12.723h0L372.1,29.26l4.53-13.866,18.4,5.089,2.407,17.043ZM225.607,35.75h0L214,18.066,234.1,7.379l3.4,18.574a102.9,102.9,0,0,1-11.888,9.8ZM98.225,33.587h0L82.656,31.8c.093-.786.233-1.874.425-3.328l.011-.084.04-.313,0-.01.042-.325,0-.033.1-.744.016-.124.072-.555.013-.1.053-.408.079-.6,0-.01.048-.371,0-.017.1-.737.07-.547.05-.378.063-.488,0-.036c.347-2.642.6-4.61.792-6.194l13.162,1.4.425,15.774ZM78.41,31.3,10.474,23.664,12.88,8.525,80.392,15.9,78.41,31.3h0Zm250.8-8.269h0l-26.464-8.269L309.254,0l25.477,9.542L329.21,23.026Z" transform="translate(0 2.311)"/></g></g><g transform="translate(178.43 2570.667)"><g transform="translate(0 0)"><path class="f" d="M23.389,58.39h0A78.432,78.432,0,0,1,11.694,48.106a53.462,53.462,0,0,1-8.04-10.99A28.174,28.174,0,0,1,0,23.887,23.99,23.99,0,0,1,6.85,7,23.047,23.047,0,0,1,39.928,7a23.989,23.989,0,0,1,6.85,16.891,28.174,28.174,0,0,1-3.655,13.229,53.461,53.461,0,0,1-8.04,10.99A78.419,78.419,0,0,1,23.389,58.39Zm0-42.465a7.964,7.964,0,1,0,7.8,7.962A7.89,7.89,0,0,0,23.389,15.925Z" transform="translate(0 0)"/></g></g><g transform="translate(-734.942 2367.414)"><g transform="translate(0)"><rect class="c" width="742" height="655.941" transform="translate(0)"/><rect class="d" width="742" height="655.941" transform="translate(0)"/><path class="e" d="M527.97,641.435v0l6.19-38.542,21.814,2.606-5.158,30.079-22.843,5.859ZM170.1,638.18h0l-2.359-27.736,64.855-6.251,4.422,23.829Zm290.809-2.213h0l-7.811-13.934,25.942-6.511,4.275,14.323-22.4,6.121Zm180.41-.52h0l-20.486-3.517L633.8,573.072l19.161,3.777-11.644,58.6Zm-313.951-2.606h0l-29.33-9.9.082-.18,0-.009.09-.2.055-.122.007-.013.032-.071.01-.022c1.273-2.808,3.2-7.052,4.879-10.969L334,617.736l-6.632,15.1Zm284.767-2.474h0l-20.338-3.517,7.96-38.283,21.076,2.344-8.7,39.453Zm-124.547-1.693h0v0l-4.126-14.32L525.17,603.8l-2.507,15.234-35.078,9.635Zm-88.73-2.213h0l3.832-30.08,18.572-2.213,13.12,23.7-35.52,8.594Zm-238.783-2.6h0l-50.406-5.989,3.094-38.8,43.777,2.213,3.537,42.579Zm-54.832-6.511h0l-15.769-1.823,4.275-37.372,14.445.783-2.949,38.411Zm263.4-.521h0l-25.351-5.209,17.393-20.183,16.067,5.859-8.107,19.531Zm80.478-1.953v0h0l-11.646-21.092,13.118-22.787,78.267,10.027L526.5,595.34Zm-368.489-.521h0l-13.559-1.562L70.9,575.547l14,1.693-4.275,37.109Zm-17.982-2.083h0L22.7,607.58l6.043-37.112,37.88,4.557-3.979,37.24Zm275.782-1.692h-.005l-32.132-6.641a376.306,376.306,0,0,0,14.446-42.84l18.425.521,17.982,27.215-18.72,21.744Zm341.954-2.085h0l-.736-16.928,23.583-22.917c1.209,8.231,4.737,30.347,6.19,39.194ZM167.146,602.5h0l-1.767-21.485,62.053-4.689,3.832,20.053ZM387.5,594.167h0l8.7-21.225h2.064a38.6,38.6,0,0,0,10.318-1.432l10.465,18.881Zm-9.14-.651h0l-14.886-5.468,16.95-19.663a31.777,31.777,0,0,0,6.928,3l-8.99,22.135Zm56.6-4.166,0,0-13.707-24.739a27.928,27.928,0,0,0,8.992-15.234l25.353,3.776-20.634,36.2Zm-131.773-2.344-65.59-4.427-4.422-23.7,78.561,1.953c-1.958,6.63-4.7,15.594-8.549,26.171Zm376.153-.911v0L675.955,512l16.8,2.474,9.58,49.221-22.99,22.395ZM156.092,577.24h0l-61.9-3.125L96.4,555.494l58.074,1.433,1.621,20.312Zm8.993,0h0l-1.77-20.053,60.727,1.562,2.653,13.8Zm-79.743-3.906h0l-14-1.693,1.768-16.8,14.3.391-2.064,18.1Zm568.356-.521h0l-19.011-3.774,13.561-61.461,17.982,2.736Zm-161.4-.521h0l-39.648-5.079,7.664-13.281,35.375,5.338-3.39,13.02ZM67.064,571.119h0l-37.731-4.557,2.064-12.63,37.29.911-1.621,16.275Zm522.37-5.728h0l-47.9-7.162,4.715-29.559,48.935,8.464-5.747,28.256Zm-191.172-5.34c-9.752,0-17.687-7.01-17.687-15.626a15.118,15.118,0,0,1,5.25-11.036,19.219,19.219,0,0,1,24.929,0,14.662,14.662,0,0,1,5.2,11.036C415.95,553.041,408.015,560.051,398.262,560.051Zm-58.515-11.589h0l-35.522-.911,2.506-16.928,8.549-12.5L343.43,530.1l-3.684,18.358Zm133.982-.519h0l-43.184-6.511A25.432,25.432,0,0,0,427,531.014L483.75,498.07l-10.022,49.871h0Zm-173.779-.521-66.475-1.693,5.6-26.173,63.085,11.979-2.212,15.885v0ZM224.335,545.6l-59.251-1.432,4.569-13.8,56.9,5.208L224.335,545.6Zm-68.39-1.693h0l-38.616-.911,1.473-23.568,42.009,9.5L155.945,543.9Zm-47.61-1.3h0l-18.274-.52V519.946l19.9-1.3L108.335,542.6Zm-22.7-.39h0l-52.175-1.3,2.8-17.058,49.376-3.387v21.747Zm450.146-4.558h0l-49.228-8.2,4.863-24.48,46.284,21.1-1.917,11.588Zm-308.5-5.86h0l-26.234-2.6,14.591-53.519,21.816,9.376-10.171,46.745Zm-30.66-3h0l-25.645-2.334,20.193-61.2,20.342,8.594-14.888,54.942Zm228.169-1.033,0,0h0a31.634,31.634,0,0,0-4.274-4.294L436.143,480.1l49.525,8.855-.736,3.906Zm-121.159,0h0L279.609,523.2l9.875-16.147,21.963,9.375-7.813,11.328Zm-141.352-2.6h0l-22.4-5.079,4.717-21.1,25.646,1.953-7.96,24.219ZM37,519.685h0l4.569-28.517,69.866,5.208-1.179,18.23ZM407.1,516.8h0a41.785,41.785,0,0,0-8.841-1.018h-1.326l-15.624-54.951,35.522-9.766,7.96,17.449L407.1,516.8Zm303.93-7.659h0l-56.745-8.594,7.96-30.991c17.646,3.449,38.178,7.17,54.093,10.026l-5.307,29.558ZM172.748,493.121h0l-25.94-1.953,12.675-39.455,23.584,10.027-10.318,31.38ZM69.423,485.31h0l-26.53-1.954,12.233-76.044,44.22,18.751L69.424,485.308Zm620.092-67.192h0L636.6,411.607l6.486-30.86,51.294,8.073-4.864,29.3Zm39.649-37.111h0l-17.833-2.864L715.6,357.96l16.95,2.994-3.39,20.052Zm-22.257-3.515h0l-22.551-3.517,4.57-20.7,22.108,3.906-4.126,20.313ZM733,356.918h0l-43.333-7.683,4.422-19.532,42.007,8.985L733,356.916h0Zm-41.419-35.809h0l-36.846-7.944,9.58-43.1,37,6.119-9.728,44.923ZM54.831,284h0l-21.518-3.515,7.96-40.106,18.276,2.214L54.831,284ZM28.889,279.7h0l-15.769-2.475L28,187.769l18.425,3L28.889,279.7Zm685.241-9.378h0l-48.2-8.073,8.107-36.459,47.756,8.464-7.664,36.067Zm8.254-39.845h0l-47.606-8.464,10.612-48.31,47.167,7.813-10.171,48.96ZM69.423,181.39h0l-9.284-1.562-17.246-73.31,35.522,5.728-8.99,69.144Zm-14-2.346h-.005l-33.164-5.468-4.569-30.73,28-5.209,9.728,41.4Zm659.736-13.672h0l-12.527-2.083,3.832-36.589H721.5l-6.339,38.671Zm-16.8-2.862h0l-8.4-1.432L685.241,59.768l23.729.391L698.359,162.508Zm-17.392-2.865h0l-42.89-7.163c1.049-5.551,2.933-15.057,5.6-28.256l35.966,3.385,1.326,32.032ZM571.16,125.531l0,0a31.618,31.618,0,0,0-9.728-8.985l12.529-60.029,27.71,52.738-30.509,16.275Zm108.185-1.957h0l-56.451-5.338,4.275-21.225,51-.391,1.179,26.953Zm42.745-.911H706.908l6.485-62.5,18.866.26L722.09,122.661Zm-107.6-7.553,0,0L576.905,43.361l49.229,12.891L614.493,115.1ZM534.457,112.9h0l-42.45-76.3L523.842,31.9l11.35,80.863h-.014a.914.914,0,0,0-.34.061l-.023.006A1.189,1.189,0,0,1,534.457,112.9Zm12.82-.909h0a25.834,25.834,0,0,0-3.241-.13L532.686,30.6l32.575-4.947-17.982,86.332ZM99.347,103.781h0l1.768-36.719h.172c9.253,0,19.113-.131,29.307-.39l2.949,34.247ZM68.691,102.61h-.005L42.3,98.312l.883-8.855,22.7-6.249,2.8,19.4Zm318.667-1.823h0L397.525,64.2,418.6,71.227l3.537,24.74ZM137.816,100.4h0L134.867,66.41a375.822,375.822,0,0,0,56.747-5.73l5.454,34.766ZM37.881,97.661h0L0,91.54,4.864,61.331l.072.007h.015L5,61.346l.109.01.05,0,.022,0,.038,0,.04,0,.033,0h.018l.028,0,.07.007.068.007c7.246.742,19.375,1.984,35.937,3.063l-3.537,33.2Zm590.172-4.688h0l6.926-35.549,41.419.26,1.622,34.9ZM428.184,75.264h0l-7.811-54.3,16.655-4.038c2.389,6.179,6.656,17.433,11.986,31.5l.013.037.154.4.06.16.339.895.057.148.04.108.015.041.105.278.3.783.008.019,0,.009c4.069,10.753,6.105,16.118,7.264,19.135ZM198.4,73.832h0L196.184,59.9c15.684-3.293,28.527-7.717,38.175-13.153a116.468,116.468,0,0,0,12.971-8.854l7.664,26.043Zm263.395-4.166h0L441.3,15.887l20.046-4.949,29.921,53.778ZM324.712,67.321h0L300.98,58.6l11.5-35.94,27.27,8.334L324.712,67.32Zm93.153-.521h0L376,52.738,385.88,33.6l28.6,9.245,3.39,23.957ZM103.029,58.987h0c-6.486,0-13.179-.131-19.9-.39l2.5-22.138,16.8,1.823.589,20.7Zm8.992,0h0l-1.03-39.845,53.8,5.86,2.653,31.251A514.878,514.878,0,0,1,112.02,58.987ZM297,57.164h0L257.941,42.84l-3.39-11.328a165.84,165.84,0,0,0,18.278-20.965l35.522,10.808L297,57.162ZM23.288,55.081h0l-3.19-.293-.091-.008-1.251-.115-.1-.009-1.471-.134-2.2-.2-2.022-.185h-.017l-2.655-.242L9.8,53.848l-.047,0-.332-.031L6.19,53.519l4.128-25.391L28.3,30.08l-5.011,25h0Zm652.667-1.3h0l-40.384-.26L641.023,26.3l33.6-1.823,1.328,29.3Zm57.631-1.172h0l-19.9-.26-1.768-29.819L738.745,21.1,733.586,52.6Zm-24.468-.26h0l-24.172-.391-1.326-27.866,23.73-1.3,1.77,29.558Zm-82.246,0h0L577.495,39.455l5.3-25.521,49.378,11.589-5.305,26.822Zm-254.847-.911h0l-27.266-9.115L359.35,6.772l28.742,7.943L382.786,30.6l-10.76,20.834Zm41.86-13.023h0L387.5,29.949l4.717-14.192,19.161,5.209,2.506,17.444ZM234.948,36.591h0l-12.084-18.1L243.791,7.553l3.538,19.011A106.785,106.785,0,0,1,234.95,36.59ZM102.292,34.377h0L86.078,32.553c.1-.8.242-1.918.442-3.406l.012-.086.042-.32,0-.01.043-.332.005-.034.1-.762.017-.127.075-.568.013-.1.055-.418.082-.611,0-.01.05-.379,0-.018.1-.754.073-.56.052-.387.065-.5,0-.037c.362-2.7.624-4.718.825-6.339L101.85,18.23l.443,16.145ZM81.657,32.034l-70.75-7.813,2.506-15.5,70.307,7.552L81.657,32.032h0ZM342.841,23.57h0l-27.56-8.464L322.058,0,348.59,9.766l-5.749,13.8Z" transform="translate(0 2.311)"/></g></g></g></svg>