<svg xmlns="http://www.w3.org/2000/svg" xmlns:xlink="http://www.w3.org/1999/xlink" width="720" height="881" viewBox="0 0 720 881"><defs><style>.a{fill:#fff;stroke:#707070;}.b{clip-path:url(#a);}.c{opacity:0.2;}.d{fill:#e5d5bb;fill-rule:evenodd;}</style><clipPath id="a"><rect class="a" width="720" height="881" transform="translate(720 4217)"/></clipPath></defs><g class="b" transform="translate(-720 -4217)"><g class="c" transform="translate(906.05 4298.854)"><path class="d" d="M366.983,349.781,378.25,367.62l15.335,23.159,14.709,18.778,10.954,20.03,13.145,20.03,10.015,17.839,9.076,14.4L461.5,495l12.206,20.03,14.4,25.35,13.145,24.411L514.7,586.07l12.206,22.22h10.954l12.206-22.22,13.458-21.282,13.145-24.411,14.4-25.35L603.272,495l10.015-13.145,8.763-14.4,10.015-17.839,13.458-20.03,10.954-20.03,14.4-18.778,15.648-23.159,10.954-17.839,27.228,20.03,15.648-21.282,10.015-13.771,11.58-13.771,10.641-11.58,176.826,22.534V328.5L782.6,297.2l50.075-73.234,122.683,3.756v-2.817L845.507,212.076,929.7,102.538l-4.069-7.511-101.4,98.584L776.968,75.623h-3.756l41.312,125.186L751.931,277.8,679.323,106.919l-1.878,4.694,64.784,176.513L699.04,348.842l-17.213-4.694-17.839-6.572-17.839-4.695L630.813,326,605.15,308.469l-19.4-19.717-11.893-19.4-7.824-24.411-6.572-24.411-3.443-27.541-1.565-23.472,8.137-31.3,11.267-21.282,14.709-25.976,21.282-22.534,16.274-19.717,27.541-15.961L679.636,19.6l25.976-6.572L731.588,9.9h19.4l18.152,2.5,23.472,5.32,35.365,5.633,28.167,2.5,28.793,1.565h31.3l31.3-3.756,31.3-5.946,31.3-5.32V83.76l6.572,24.411,8.137,27.854L1029.844,162l8.137,20.969,8.137,21.282,8.137,22.534,3.13,22.847,1.565,19.4v29.419l-4.695,22.534-10.015,29.419-11.267,25.976L1016.7,397.352l-12.832,16.274-17.839,17.839-21.282,16.274-24.411,11.267L911.23,469.021l-35.678,1.565L847.7,462.449l-31.609-11.267-31.3-19.717-23.159-20.656L743.794,392.97l-13.458-17.839-6.259-5.007-6.572,9.7-11.267,17.526-10.954,22.221-15.648,21.282L664.3,466.2l-14.4,20.969-14.709,24.411-9.7,21.282L613.287,552.9l-7.824,13.145,6.572,4.382L620.8,562.6l7.824-10.954,10.015-14.4,16.587-17.839,14.4-16.587,16.587-16.587,20.03-22.221,15.648-12.206,15.335-6.572,15.648,2.191,10.015,7.824,8.763,8.763,7.824,10.015-2.191,14.4-6.572,14.4-10.015,8.763L737.221,523.79l-18.778,5.633-16.587,7.824-17.839,6.572L673.063,548.2l-13.458,9.076-20.969,12.206L620.8,581.688l-8.763,7.511-3.443,7.824,5.633,3.443,15.648-3.443,24.411-2.191,28.793-5.633,15.335-5.32,13.458-3.443,12.206-4.382,10.954-2.191,14.4-4.381,12.206-4.694,15.648-7.511,13.458-3.443v2.5a64.784,64.784,0,1,1,0,7.511l-11.58,2.191-8.763,4.382-8.763,5.946L752.87,582l-10.954,4.382-4.694,6.885,4.694,6.572,8.763,5.32h10.954l7.824,3.443,11.267,4.382,13.145,4.382L802.944,623l10.954,5.633,12.206,6.572,10.015,5.633,8.763,5.633,9.076,5.32,8.763,6.885,7.511,5.007a67.967,67.967,0,1,1-4.694,5.633l-16.274-13.145-10.954-4.382-12.206-5.32-13.145-7.511-12.206-4.382L784.166,630.2l-9.076-2.191-5.32,4.381,2.191,6.572,3.13,7.824V654.3a64.158,64.158,0,1,1-20.969-1.565l5.633-4.694,1.878-9.076L756,632.389l-8.763-6.572-16.9-5.32H712.5l-17.839,2.191-17.526,2.191-22.221,5.633-18.465,5.32-18.778,7.824-16.587,10.015-12.206,8.763-10.015,10.015L570.1,683.715l-5.633,12.206v41.937l3.13,17.839,5.633,15.648,3.443,15.335,3.13,12.206H483.406l3.443-12.206,3.443-15.335,5.32-15.648,3.443-17.839V695.921l-5.633-12.206-8.763-11.267-10.015-10.015-12.206-8.763-13.771-10.015-19.091-7.824-18.778-5.32-24.724-5.633-17.839-2.191L350.709,620.5H332.87l-16.587,4.382-8.763,6.572-5.633,6.572V647.1l5.633,4.694a64.158,64.158,0,1,1-20.656,1.565v-7.511l5.32-6.885,2.191-6.572-5.633-4.381-8.763,2.191-16.587,4.382-12.206,4.382-14.4,6.885-12.206,5.32-11.267,4.381-15.961,13.145A62.593,62.593,0,0,1,210.5,707.5a64.158,64.158,0,1,1-64.158-62.593,65.1,65.1,0,0,1,46.319,19.717l7.511-5.007,8.763-6.885,9.076-5.32,8.763-5.633,10.015-5.633,12.206-6.572,10.954-5.633,9.076-5.633,13.145-4.382,11.267-4.382,7.511-3.443h11.267l8.763-5.32,4.382-6.572-4.382-6.885-10.954-4.382-8.45-6.572-9.389-5.946-8.763-4.381-11.893-2.191a62.593,62.593,0,1,1,0-7.511v-2.5l13.458,3.443,15.335,7.511,12.206,4.695,14.4,4.382,11.267,2.191,12.206,4.381,13.145,3.443,15.648,5.32,28.793,5.633,24.411,2.191,15.648,3.443,5.32-3.443-3.13-7.824-9.076-7.511L423.63,569.483l-21.282-12.206L389.2,548.2l-10.015-3.13L361.662,538.5l-16.587-7.824-19.091-5.633-23.159-12.206-10.641-10.015-6.572-14.4-2.191-14.4,7.511-10.015,9.076-8.763,10.015-7.824,15.335-2.191,15.648,6.572,15.648,12.206,19.717,22.221,16.587,16.587,14.709,16.587,16.587,17.839,10.015,14.4,7.511,10.954,9.076,7.824,6.572-4.381L449.606,552.9,437.4,532.866l-10.015-21.282-14.4-24.411-14.4-20.969-15.335-25.35-15.648-21.282-10.954-22.221-11.267-17.526-6.885-9.7-5.946,5.007-11.58,17.839-17.839,17.839L280.6,431.778l-31.3,19.717-29.419,11.267L192.348,470.9l-35.678-1.565-29.106-10.015-24.411-11.267L81.871,431.778,64.032,413.939,51.2,397.665,34.926,376.7,23.346,350.72l-9.7-29.419L8.95,298.768V269.349l1.565-19.4,3.13-22.847,8.137-22.534,8.137-21.282,8.137-20.969,5.007-25.976L51.2,108.484,57.46,84.073l1.878-29.106-1.878-19.4V13.03l31.3,5.32,31.3,5.946,31.3,3.756h29.732l28.793-1.565,27.854-2.5,35.678-5.633,21.908-5.32,18.152-2.5h19.717l25.976,3.13,25.976,6.572,25.976,13.145,27.541,15.961,16.274,19.717,21.282,22.534,14.4,25.976,11.58,21.282,9.076,30.671-1.878,22.534-3.13,27.541L499.68,244l-8.137,24.411-11.267,19.4-19.4,19.717L434.9,325.37l-14.709,6.572-17.839,4.694-17.839,6.572L367.3,347.9l-43.815-59.776,62.593-176.513v-4.694L314.092,279.677,251.5,202.687,292.184,75.623h-4.069L240.545,194.237,142.273,96.592l-3.756,7.511,84.188,109.538L112.542,226.472v2.817l122.683-3.756L285.3,298.767l-166.811,31.3-1.565,3.443,175.261-24.1,10.641,11.58,11.267,13.771,10.015,13.771,15.961,21.282Z" transform="translate(0 0)"/></g></g></svg>