<svg xmlns="http://www.w3.org/2000/svg" width="20.77" height="15.82" viewBox="0 0 20.77 15.82"><defs><style>.a{fill:#fff;}</style></defs><g transform="translate(0 -61)"><path class="a" d="M43.622,61H26.5a1.8,1.8,0,0,0-.782.183l9.3,9.3,2.085-2h0l7.3-7.3A1.8,1.8,0,0,0,43.622,61Z" transform="translate(-24.678 0)"/><path class="a" d="M345.08,86.728l-6.867,6.867,6.867,6.867a1.8,1.8,0,0,0,.183-.782V87.51A1.8,1.8,0,0,0,345.08,86.728Z" transform="translate(-324.493 -24.684)"/><path class="a" d="M.183,86.721A1.8,1.8,0,0,0,0,87.5v12.17a1.8,1.8,0,0,0,.183.782L7.05,93.588Z" transform="translate(0 -24.678)"/><path class="a" d="M37.53,277.211l-2.085,2a.608.608,0,0,1-.86,0l-2-2-6.867,6.867a1.8,1.8,0,0,0,.782.183H43.615a1.8,1.8,0,0,0,.782-.183Z" transform="translate(-24.671 -207.44)"/></g></svg>