<svg xmlns="http://www.w3.org/2000/svg" width="18.718" height="18.718" viewBox="0 0 18.718 18.718"><defs><style>.a{fill:#e5d5bb;}</style></defs><path class="a" d="M12.476,9.357h0a3.119,3.119,0,1,0-.914,2.206A3,3,0,0,0,12.476,9.4V9.357Zm1.684,0a4.784,4.784,0,1,1-1.4-3.4,4.618,4.618,0,0,1,1.4,3.319v.081Zm1.316-5v0a1.123,1.123,0,1,1-.329-.794,1.076,1.076,0,0,1,.324.77v.023h0ZM9.362,1.679,8.43,1.673q-.847-.006-1.286,0T5.968,1.71a9.814,9.814,0,0,0-1.312.133l.057-.008a4.877,4.877,0,0,0-.907.236L3.84,2.06A3.21,3.21,0,0,0,2.068,3.817l-.008.021a4.659,4.659,0,0,0-.221.845l0,.029a9.17,9.17,0,0,0-.124,1.239v.016q-.03.738-.037,1.176t0,1.286q.006.848.006.932t-.006.932q-.006.848,0,1.286t.037,1.176a9.814,9.814,0,0,0,.133,1.312l-.008-.057a4.877,4.877,0,0,0,.236.907l-.011-.034a3.21,3.21,0,0,0,1.758,1.772l.021.008a4.66,4.66,0,0,0,.845.221l.029,0a9.171,9.171,0,0,0,1.238.124h.016q.738.03,1.176.037t1.286,0l.926-.019.932.006q.847.006,1.286,0T12.749,17a9.814,9.814,0,0,0,1.312-.133L14,16.876a4.877,4.877,0,0,0,.907-.236l-.034.011a3.21,3.21,0,0,0,1.772-1.758l.008-.021a4.66,4.66,0,0,0,.221-.845l0-.029a9.17,9.17,0,0,0,.124-1.238v-.016q.03-.738.037-1.176t0-1.286q-.006-.848-.006-.932t.006-.932q.006-.848,0-1.286t-.037-1.176a9.813,9.813,0,0,0-.133-1.312l.008.057a4.877,4.877,0,0,0-.236-.907l.011.034A3.21,3.21,0,0,0,14.9,2.056l-.021-.008a4.659,4.659,0,0,0-.845-.221l-.029,0A9.17,9.17,0,0,0,12.767,1.7H12.75q-.738-.03-1.176-.037t-1.286,0Zm9.352,7.678q0,2.79-.062,3.862A5.178,5.178,0,0,1,13.2,18.653h.012q-1.072.062-3.862.062t-3.862-.062A5.178,5.178,0,0,1,.059,13.207v.012Q0,12.147,0,9.357T.058,5.495A5.178,5.178,0,0,1,5.505.061H5.493Q6.565,0,9.355,0T13.217.06a5.178,5.178,0,0,1,5.434,5.447V5.495Q18.714,6.566,18.714,9.357Z" transform="translate(0.004 0.002)"/></svg>