<svg xmlns="http://www.w3.org/2000/svg" width="30.363" height="42.597" viewBox="0 0 30.363 42.597"><defs><style>.a{fill:#7c1111;}</style></defs><g transform="translate(0)"><path class="a" d="M10.817,22.159A16.458,16.458,0,0,0,5.745,25.3a16.7,16.7,0,0,0-3.707,4.74,14.5,14.5,0,0,0-1.621,5.84,9.4,9.4,0,0,0,.351,3.11A6.636,6.636,0,0,0,2.427,41.83a6.636,6.636,0,0,0,2.844,1.631,7.5,7.5,0,0,0,1.64.284,5.688,5.688,0,0,0,1.735-.228,5.214,5.214,0,0,0,3.6-5.214,4.086,4.086,0,0,0-1.507-2.844A4.238,4.238,0,0,0,9.3,34.644a2.986,2.986,0,0,0-1.735-.085,3.024,3.024,0,0,0-2.133,2.626A2.389,2.389,0,0,0,6,38.825a2.124,2.124,0,0,0,1.574.692.284.284,0,0,0,.284-.284.3.3,0,0,0-.218-.284,1.384,1.384,0,0,1-1.128-1.706A2.057,2.057,0,0,1,7.9,35.63a2.607,2.607,0,0,1,2.313.417,2.721,2.721,0,0,1,.948,2.237,3.792,3.792,0,0,1-1,2.266,4.058,4.058,0,0,1-1.981,1.2,4.892,4.892,0,0,1-2.417-.076A5.773,5.773,0,0,1,3.47,40.626a5.688,5.688,0,0,1-1.953-4.74A12.419,12.419,0,0,1,3.034,30.54a18.136,18.136,0,0,1,3.337-4.579,17.88,17.88,0,0,1,4.674-3.271.294.294,0,0,0,.142-.389A.3.3,0,0,0,10.817,22.159Z" transform="translate(17.716 -1.15)"/><path class="a" d="M30.256,27.456a17.159,17.159,0,0,1-3.906,4.238,18.268,18.268,0,0,1-5.043,2.749,12.95,12.95,0,0,1-5.574.844,5.916,5.916,0,0,1-4.579-2.436,5.574,5.574,0,0,1-.806-2.408,6.56,6.56,0,0,1-.057-1.28A3.792,3.792,0,0,1,10.528,28a4.039,4.039,0,0,1,1.441-1.9,3.792,3.792,0,0,1,2.389-.739,2.721,2.721,0,0,1,2.114,1.27A2.636,2.636,0,0,1,16.595,29a2.057,2.057,0,0,1-1.82,1.213,1.574,1.574,0,0,1-1.071-.256,1.555,1.555,0,0,1-.436-1.071h0a.284.284,0,0,0-.569,0,2.1,2.1,0,0,0,.4,1.687,2.436,2.436,0,0,0,1.659.692,2.891,2.891,0,0,0,3.081-3.508,4.285,4.285,0,0,0-.645-1.545A4.086,4.086,0,0,0,14.5,24.366a5.2,5.2,0,0,0-5.631,3.015,5.1,5.1,0,0,0-.417,1.669,6.409,6.409,0,0,0,.095,1.659A6.532,6.532,0,0,0,9.9,33.77a6.807,6.807,0,0,0,2.673,1.9,10,10,0,0,0,3.072.683,15.358,15.358,0,0,0,6.077-.872,17.121,17.121,0,0,0,5.243-3.062,16.041,16.041,0,0,0,3.792-4.664.284.284,0,0,0-.123-.389A.294.294,0,0,0,30.256,27.456Z" transform="translate(-8.434 -1.262)"/><path class="a" d="M30.657,16.892a15.984,15.984,0,0,0-3.792-4.674A17.377,17.377,0,0,0,21.6,9.137a15.747,15.747,0,0,0-6.048-.948,10.722,10.722,0,0,0-3.11.578,7.034,7.034,0,0,0-2.759,1.8A6.276,6.276,0,0,0,8.2,13.593a7.585,7.585,0,0,0-.161,1.631,5.025,5.025,0,0,0,.36,1.735,5.2,5.2,0,0,0,5.555,3.195,4.086,4.086,0,0,0,2.74-1.716,4.313,4.313,0,0,0,.683-1.536,2.967,2.967,0,0,0-.095-1.763,3.015,3.015,0,0,0-2.844-1.9,2.3,2.3,0,0,0-1.669.711,2.446,2.446,0,0,0-.474,1.64.284.284,0,0,0,.483,0h0a2,2,0,0,1,.531-1.109,1.4,1.4,0,0,1,1.043-.256,2.048,2.048,0,0,1,1.782,1.28,2.645,2.645,0,0,1-.2,2.38,2.749,2.749,0,0,1-2.171,1.2,4,4,0,0,1-2.38-.806A4.058,4.058,0,0,1,10,16.3a3.726,3.726,0,0,1-.209-1.166,8.618,8.618,0,0,1,.142-1.27,5.186,5.186,0,0,1,.948-2.342,6.181,6.181,0,0,1,4.74-2.275,13.775,13.775,0,0,1,5.612.948,19.122,19.122,0,0,1,5.053,2.759A17.311,17.311,0,0,1,30.221,17.2a.287.287,0,1,0,.493-.294Z" transform="translate(-8.021 -0.424)"/><path class="a" d="M10.951,21.008a17.539,17.539,0,0,1-4.674-3.28,17.775,17.775,0,0,1-3.347-4.579A12.391,12.391,0,0,1,1.423,7.764,5.688,5.688,0,0,1,3.4,3.024a5.688,5.688,0,0,1,2.3-1,4.74,4.74,0,0,1,2.417-.066,4.152,4.152,0,0,1,2.038,1.232,3.792,3.792,0,0,1,.948,2.285A2.7,2.7,0,0,1,10.1,7.7a2.56,2.56,0,0,1-2.294.36,2.019,2.019,0,0,1-1.422-1.65C6.268,5.631,6.6,4.74,7.453,4.74a.284.284,0,0,0,.066-.559h0a1.678,1.678,0,0,0-1.65.607,2.673,2.673,0,0,0-.493,1.687A3,3,0,0,0,7.415,9.186a2.844,2.844,0,0,0,1.744,0,4.152,4.152,0,0,0,1.488-.825A4.1,4.1,0,0,0,12.2,5.517,5.186,5.186,0,0,0,8.638.256,5.688,5.688,0,0,0,6.856,0a8.219,8.219,0,0,0-1.6.265A6.759,6.759,0,0,0,2.409,1.877,6.636,6.636,0,0,0,.731,4.721,9.234,9.234,0,0,0,.362,7.84a14.334,14.334,0,0,0,1.612,5.849A16.486,16.486,0,0,0,5.68,18.43a16.24,16.24,0,0,0,5.081,3.147.294.294,0,0,0,.379-.171A.313.313,0,0,0,10.951,21.008Z" transform="translate(17.81 0.001)"/><ellipse class="a" cx="1.147" cy="1.147" rx="1.147" ry="1.147" transform="translate(4.188 26.773)"/><ellipse class="a" cx="1.147" cy="1.147" rx="1.147" ry="1.147" transform="translate(24.078 36.12)"/><ellipse class="a" cx="1.147" cy="1.147" rx="1.147" ry="1.147" transform="translate(4.188 13.747)"/><ellipse class="a" cx="1.147" cy="1.147" rx="1.147" ry="1.147" transform="translate(24.078 4.191)"/><path class="a" d="M-.01,22.3a2.389,2.389,0,1,0,.7-1.693A2.4,2.4,0,0,0-.01,22.3Z" transform="translate(25.576 -1.034)"/></g></svg>